<mxfile host="app.diagrams.net" modified="2023-12-31T12:31:16.934Z" agent="Mozilla/5.0 (Windows NT 10.0; Win64; x64) AppleWebKit/537.36 (KHTML, like Gecko) Chrome/120.0.0.0 Safari/537.36" etag="G7oHf8KZZhbWBbzBlX_U" version="22.1.16" type="device">
  <diagram name="Page-1" id="y6nwC2-7fo18RIFl09b8">
    <mxGraphModel dx="574" dy="309" grid="1" gridSize="10" guides="1" tooltips="1" connect="1" arrows="1" fold="1" page="1" pageScale="1" pageWidth="827" pageHeight="1169" math="0" shadow="0">
      <root>
        <mxCell id="0" />
        <mxCell id="1" parent="0" />
        <mxCell id="fAz1fUYz5ra0j_Vrlqo5-1" value="" style="shape=image;verticalLabelPosition=bottom;labelBackgroundColor=default;verticalAlign=top;aspect=fixed;imageAspect=0;image=data:image/png,iVBORw0KGgoAAAANSUhEUgAAAeoAAAFcCAYAAAAH/v1SAAABhGlDQ1BJQ0MgcHJvZmlsZQAAKJF9kT1Iw0AcxV/TSkWqDnYQUchQneyiIo6likWwUNoKrTqYXPoFTRqSFBdHwbXg4Mdi1cHFWVcHV0EQ/ABxdXFSdJES/5cUWsR4cNyPd/ced+8AoVllqhmIAapmGelEXMzlV8XgK0IYwwACCErM1JOZxSw8x9c9fHy9i/Is73N/jn6lYDLAJxLHmG5YxBvEs5uWznmfOMzKkkJ8Tjxp0AWJH7kuu/zGueSwwDPDRjY9TxwmFktdLHcxKxsq8QxxRFE1yhdyLiuctzir1Tpr35O/MFTQVjJcpzmKBJaQRAoiZNRRQRUWorRqpJhI037cwz/i+FPkkslVASPHAmpQITl+8D/43a1ZnJ5yk0JxoOfFtj/GgeAu0GrY9vexbbdOAP8zcKV1/LUmMPdJeqOjRY6AwW3g4rqjyXvA5Q4w/KRLhuRIfppCsQi8n9E35YGhW6Bvze2tvY/TByBLXS3fAAeHwESJstc93t3b3du/Z9r9/QBgvXKfjIYiMgAAAAZiS0dEABkAdgDSrBLplgAAAAlwSFlzAAAuIwAALiMBeKU/dgAAAAd0SU1FB+cMHQ4VHIk8dIgAAAAZdEVYdENvbW1lbnQAQ3JlYXRlZCB3aXRoIEdJTVBXgQ4XAAAgAElEQVR42uydeXwV1d3/3zNz9+wLEAgk4UIIIawKgkDCIorIImKRgq21QqtW6KIibV37CH2K1qVqf0qFujxFUIqIShFBRPZdZA9IIIGwBAi5We42d+78/rjJJDcbAdm05/165ZW5s5w5c7bP+X7POTPSnfdP0TGosQno4T9rHWvkYFO5FGFU8vXaVQwbNISYGEf4/s2b8Os6zeKbkXf0CAP6ZWO2WsLOmf3Pt+h/22gkkwJlbnS7NbQt+N6hqRJaELweCT0oIcmhMmY211/WFBMoMihm/bLFSQ9oUHEOiyRhMTswmU3YbPaLDm/hwve5885xxu/ysjI2bV5Hu3btSEtLN/bt27+ToqIztGvXlrS0dL744nOGD78dgC1b1oFiol1aGhs2bGRAzmAio6LYunUjvXvdGEpLXcdqrb6vSW44ToFg5X+/VJ0X56nfql9G06p/2+xBrNbQfQJBqKhwo6oqHo/XOMdhldBlK1Y5iD06DpMMUsCPKlsImHwEykrB6yUoe9DLVfwREfhtNnS/F/ncmeqbySa0xPjQpseL7vchWUIPG7TbCGhq6Bk0DYJeUH3V6WDSMUl2bHYbDpOE2RTBurV5DB7Ssd7nXLlif4PHBE1D0iORJCtQt97IsozP68Pv9eDXNHS/F8liw6IoKBYLHo8Hn89HQnwC5RXlREZEUni8kKSkJDweD5LmCwsvqOlIFhsAX65aaezv07M/Cc1i8Hi8WEwW/AE/FpOCYjajqcHK3xYUc6iiKIoJTQsA4PF48fl9tGzZnPLSClwlbtqkteLsmbOs3rKVEUMGYbFYWbRoETcNHEh0XBySVF2XTFdUoPXL1ximZ2aydv0XDB82Mmx/y9T27N71NW3apABw7Hghbdu2DTvnpkED2X9gH85OnXGXunEARDlE7fgeoAc0VM2EFgC/L1RBJFmvFGb9qghz7fhZ3CXEJyRdsjBTUlrzxRef0aZNKomJ8cTHtyAzK5O8bw+TlpaO1+th5aplDL9lBKfOnWLfnn107NgVj6e8stFw0atXPw4c2EdBQT4DcgaTkBgFQO9eN2Ky6HVEORCsK8b1C7FeryAb4l1DmAMBFwB+1Y3DKuGtAI/HWtmxMqPoKrIcJM6h4wmqYLOh2Sz4VB9lp45Tdu5QdbjNmxuiK1W4CZoVUAAZdN0PZplgXGIoPnIoEprfGxJhCZB9+DxlWIIasg8UqxWHImO3RWG1xGGzX/n2oORcBQCxcRFN+v1DQlUDuN0lxMVkhMRZavx8q82K1Watcb2foKYjKxI7dx5g85Yt/PynPycuLpqKUi879+zH6XTicDScr8ePHycmOpabb77Z2Hf27Fmio6M4lH+M9mlt8Fa4OXDkINH2aJxOJ8GgypEjR/F4vRSdOknHjl1JTIzmP0uXoAaCONu2p327tpS6SwgGm/HNzh3gdfPpp0u4/fYRBGUTqhYMCfia1dx++wjmzp2LqapinU9DL0qg9SvUGOo6EfHNObFuLX6vL8xibtE8nv0mhaKiIhLjE8jPP0JaWhoALpcbb4kLu2Sl8Ntc2mZmYW+VEEqRKxR3wQXmtaahBkw1LDcTmgYms47ZotUpelXCDOHifKWyV68oxhETX6+AXSy9evXl5MlTnC46yZYtW4iLi+WGG/qxfu0aQEfXdfw+LwUnTnHs2GEsVhugc33P/oBOQlw0oNO5c7WVp0g6gWAojVSfhFplXdA0Ma7qJIVZJkHA7EX1+vBpQayKjGLSkYIhC1mOsGK2SkSU+Ai4ywCoCKrozZLw6CVQ5kX2lVIKIJnRdQe6HmqMpYjqBlZXLKgBf+iesg5RlVZX0IvuKcJXGsAaDCDJXlBsmGWw2eyYFCtmqxWrxY5ismA2my66/dN1vcFzGjvWGGeK3bRzJhrXnu/3D0Gci8+dorTsFHrQRkxUCjaLjs12/rSvjclkNsxQSbLQudv1LFn2H348bhyKRUUKhkp4Xl4eu3btwuP1kpaaQp8+N4aFU+FVw36vXbs21FlOTUXXdQ4ePkxMdDQ7d+4EILlVMosWfcQdd4ymY8euLFmymEmTJtK6dWusNgc9unfn6JHjHDt6nBbNmnO2+Cxjf3RXtefAbOZcSQmbt2zm9pEjkWUzHn8QU1Py+IIKwiUqNBdT+Lr06MHe/fvo1q1bLQskjbwjeXTqmMnp06c5ceIELVu2xFviwmK1YIuNonOnjlScPUVEQguhhte0MNcVBFMNAVYqK+eVtJrPh81kueRhJiW1ICmpBV26dmPhwg+44QZIbNaCZcuWkJbWjr79snG5Suh5/Q3Y7XYsFsjokFJtHVemZ5UQ+y9AiIPBmo2rC58WBJ8KVjNWRcYkewiqfhwWHc1vIxhvxl7qQi09TVVXKmixgj0GrxfwuULWLyA5HOh6yBWpRihYLDF4ZT1k+eJBLysBwKdWiq85dJ0hviYrZlOV+MY0Kr6XEovFfFHHGrOi2zkTL+j3tSq+Ve5kXVdrebcsxrGS0iJ8mkSsrSXNW3ZE84XKQABvve7uC8sbmcioOCTNx9dff01mx0zUgB9d12nbti1t27YlGFT517/mhQm11Wql4Mi3/HvhAgAGDRyMLpvpmNmRju2dAGR06MCR/CM4HA5OnTpJampromNicDpDx212M6rqx2qr7lgqFgCNhMQEEuITmDd/Pl27diWrUyciFImVK1eSmpqCIyLC0EHTtSDQFyPK9V0TnZzGuk8/pGvXrmH7k1u25NDhQ7hOuTCZTZw8mk9SUhLNU6rdkV269mDBokX0vnmYUMerjN8nodWwmGuLh2Kppwctg2zWL1WRrGsdqm60oIRJsSI1Nlhb+zqbnVJXGVHRkZc0jYqLi3CVeikoOIizXRoSMCDnJtzuUhyOaGRJIrllSJiDuo7P1wQXdQ0x1oJVDW0pPreXQKXEWiwSumTFbpWwykEURcVhtaI3jyCo+3EfO0RAD1SGZ0IzK2CJBklHiow2wvfKOvg8EPSBBbyVbnmr34vkDVncJosNk0kiVrE02fK9JJ7Ai6BftrPBezV27Lta0VW//7q9/vL1SI+yMNHUAn4kyYysSGgBPz6/BzXgI6D5sVpsyJIZNeCjwu1quH5qYFGMAl5tDVqsYedJ2DBLEKHb0Gw6MnYs9tAQizUoo5X5kF0lmFwumqVnoJssoeGV3N0oQDAmBrOjTYNpp/o1tKAfm82CLDfcGdIry0F2dj/mzp1PmzZtjGM7duzgyLHjxEba8fl8YffSdZ2UNimMHj3a2BdhMxPtsBlu8OUrVpCTnY3P58fjKUWWzZjNihGOolhCY95m8JUHDAu/ylIfNGgwqupn8eKPiIttDsgMHjyYnTu/Yc/evWR16oTNIjcs1E0u4BdYEWonxKUmMbmNYTEbGRrQSIxI4KTrJGmp7fn22/24XO6wiWd2m4VIuxnV58NstQq1vGrCXJf6hBnAYr2cE8CCBDQfJl8FVknGZrMhKSbcXg/+oAcpOrFhK8LnIVBeglXXsVltmCobp++Cx+PB4wk1uvHxzTlzphif10+Xzl2Ij2+Oz19BTJQDhy0aHQv+Gkkj+1WCul6vEIfce+dQfV48Xh9WXUG2m7BYQvkRFRVJXGIkJo9K0B5FEC9+TxmekwV4AVWptI6VkAhLkY5qIQasHj94XXgrJ2OZTWA3SdgVS6XlG3tVxn+vFQuzQgopnubRQPIRFa/g86ocO+6inTORds7EsGuTWzooLy+h8JiL5klWIiK9nCwqB7rUe7+DR/ahB0AygUWyVYupT0KyWrHa7OjmWGIjogmaQnluDehERoCq+FEkGTBjLj5XXV9bNENSA1gPFSBZbXjatgqVs3I3jt25IUs4NgZzRlfAQ3mZhNWs4/dDaUkpCfGJbNy6lT7XdUQHNJsVyWRBx4Iig9ytF6pfw2xpfEKv2aJA7kHccc2Ro2ONDpzZHO7Bkszg9/uRZTM33TSEFV98YejPli1bmDRpEj6fj737dqPrOqqnAkxmzLJMIOAn4POiBnUslpAAa35QS89x+pwLmyOK2NhYNu/cTYw11FlQgxAMqmg+PyaTTEAL0DyuOZ9v/ZzIKAdJzVsgBVXcFRWsXbeOyEgrbr9GTHSoY2pRbIwYMZx/L/yQNq1a0bNPf6Qxv5ysX26BDtb0lV1eRyl+r499G1YxpP9N+H0+WqS2rLRAzvH119tp3z6T/PyDNG/Rgo4ZHWtZKedYt/1rMnr0FOp5OYXZKxFQGxZmUwMua4vt8lpHuhpE1XyYfW4skoTdHoXdXtftdvZcKarNhlQ5u1NXg3hdRVgIYrPYsNtt2O3Rl0yY7RYJkzWSiAg7J08WER/fvM75mi9khUaYVGRXCd6EFMyek8ixbfB4/Zw9V0qZyxWWljI2LBaIiooiIsIeNoHMH/SilpxBPXuKgBwSZD0qmqAtZE3IlVavRwZ0L6jVznOb2YrNZiM2Mhrzd1o9IXEpx/Yvm/gGQt6GYCCIrgeokGoME3jdIV2sp70MBgMECKKpwbD086lqaFJbpRkVDMCZk6HtFq1D5coi27BF2QgqNqxmK//MtdUbt1+n+vDFO5DUALZjRWgOC/4WIfFXPCq2A98ieb0EYmOQW6cSKD+H5chRdJuNim6ZobyuCAmwbrOh2ax4M5woHhVzwVGCsdFGeJIawBasNnK27NhJh3bpREfFsOzzpfh8Pu68804A5r43l7sn3B1mGbtcpbRo0aLO8cYIHDkASJjahCYIBw7tRTnnoqJdFrLVjGKxcCQ/H7/fT6coK6Y2TjZt28TRoyf50Z2jWblyLaWlZ4mOjgVgyJAhqF9vRE/rQMBqY9O2HfTvlomu6ZgiI9n/7SFaNG9OjKcMU+s0Nm/ejsdTRteuXfGU+2id2or93+bRLrU1eCo4Xe4hKakZsmzm7Nmz+P1+kpKaUVHqJSo2CndFBR6Pl7j4aDSfH7M9NIQR8LqN7WBQDbeo9aYNWDfJar501vKFhWOxWVErB7zik6p7o/HxcURFRXLq1FGat2jB8RMnaJfWDrPVHHbOmcKjQqgvgzADDYpzQ8JsNgWuyDI53XU2VHYkiRh7FPbzzFNw2MycchUh6V6sUjQRDgfN4hJRrLaLjoPm8+L2BVADoYY9NtJGTFJzQzwD5+nrKlYbmrcE6fRplBIXlphYZLcf+eR2bG1SadkimpYtolFkSw0Z9OMPevEUHqb8pDskyGYzWkJcqIHWvRBf3eHwSF4oL63ON0UnRrLiiHQQGdHqsnS8rzV8XpVSb3mD4htW7oN+Q4R9qlrnuNVshkrrT3HEYZLNWBUbMZYoLLKNiuJj5Bed48yZcuOao3nlJNgspCXa8Ka2ConorlywdK2/bh3NxxefiRzQ0f1eatamoElCTWqGZHagVHoRTZFxqOkOAnFRUDncoVssVFzXBTVQ+bwelQAQSErHYgGzp7KDZotk585ddOjQHpvNTo+uXY1liL169eLYyePsP5BLxw4ZRhx27tyF1+uhY8cubNi4gdG3j64sW+YmWdV6q3bIenUnR05MQo9thr1qQiFBMjq0C9WxinICqp8+vfvTpzcEVT833TSw0h1dOWdD9UPHLkiAzWRiQL9eaD4/khm0gErH9pVhmWXU0nP06JKBL+jDKluwWq2UnjtHSqskvBVugj6NCMVCyZnTWDSIjo0Bh41AWRk2WUItPYcZMFtktPLySq+Jv9Kjp+P31FgSeClE+tK4sy9dpczs2pVdB3aRkzMgbH+bNins3buXNm1SKDxWSOGJQmMGeBU39umN6+gRYtqkCYW96sJ8eUVaV4PgKiEmJrpey7kxWsQkXPA1da3mUmONsN1uIy7RgkVuXr0MSpUIEBpjrsJuj8Lj8dR/b8mGZLGh23zoqhupeQtUhwXFVYKuuikvK660YNz4Y6utY8mkQVS0MTHL5/eGrORASGCsZjMmRSfWHktsYovvaCV/v63qUm+5IdC1LeJ6xdgRgeKII1o2Y7eGhkDMkoxihqDJhklSkNQAjr0HjbF5rXkLCn0+DheeBqBZcjOatWgGwOlvj3C61M26Y2doabXRKq0V7s4ZcKCBMt6+QyhPbTK+DqmVOyun9Jkk5OYtCJTC8WMFnCspoeRsCcOGDSXo9SCjGB07s0WpM6NJlTWKz53h1KkiOnRoT3mZl+3bt1BQkE/7Dun4vSHRadGiORs2buDGGhO1bFYbZ88Wk3f4kCHOrpLqTmCLZokUHj9GWlpqmNVd+/0DZovCuXNeoitHT7wmG16fC624CD0QJMrqwBphM8SPgA+/19c0TzDesLXMAAF8+HUv+KHEXYqimJEUGb+lupPu97mrhT8YJKD5cbk9RGqh9JACmlG2VSm8bAe18DJUFY6pSeJ6WQT6ElS+Mg+63VLH6opIaM6ODevqCHXLli05ePAARaeLSGyWSFHRqTpC3TGjI2+98w79hFD/4IQ5rEKobiS3h6SkC5/lf7ECXZ87OykpulqU/TqBBupI1fiyRARuz8kG41BhkwhoCpQVo549hpTUHJ/Vi+5xVTe0EVa8eMFX6bKWAXwQCLmtY602oqxx2L5jR+SHYFWrAQ13RQleXxlenwdV9eJWQw2tbI4xxFiOTCTWHoPdasEkmSp1UEHxqCilLtDAHx+FpAaI2L4LgPLeParvU2nZFpeWcrDgOCarlSDQY/D1YfFp3TOTJD3Ari+/4cypUxQVnKRNhxSg7ryaG1rY8DmCeINugpIGbq1SSCTMEpg1C3IE7Nm/E095BVlZWcR3D3khXa5S7PZovvlmHdnZOaxZsxqXq5RAQOPWW2+hosLDJ598RJcePYiwO1i8+BPGjbuLDulZtEpOIi0tlSNH8jleeJK0tGgqKioMQQeIdDj49NNPadOmtRHfmNhoSks9REfbUcwmThSdJCmpORUVnuoWQrbUsbKtihX9xLFQmiomLFY7iiyh4ed0yWmifKGJdiq1RTFwUf1GRQn1aBXFjNlqQ5blBrVRlmUssg3FUd026iYFqTIMcw0xBpAVRz23lJDu+MVD51ukZmy2S0vlrhHD6JaZgcViQSAQCAQCQRONGr+f/fv2suSTxeQfOVzHcm4I04WI9IypvxUCLRAIBALBRWCxWOjarTsdMzvxwnP/a4i1ruuNirXcmEjrNf7GDr9ViLRAIBAIBJdAsG8bMQpdp8affoFCXc+s7e6dxEvlBQKBQCC4FGR2yqotuw2KdR2h1oPBek8W1rRAIBAIBJfOqq7HRiYY1BsXar2BF5Po4gMVAoFAIBBcUhrS1tpiLQuRFggEAoHg2hVrWYi0QCAQCATXrljLTRNpIdgCgUAgEFwugW5IrAMBrf511OEXB0VqCgQCgUBwiXGXhz6UU3MNde311IpsOt/3qIVICwQCgUBwOWgWW/0lPFmW6hVqqOfNZCFrWhfj0wKBQCAQXCGCQZ0qja4t1nJTRFqItkAgEAgEl5g6Wlv/Z6Ll2iJdv4UtEAgEAoHgcot1le7W1N4aFrVeR5iFSAsEAoFAcOXEumqzjlA3OmlMBz0oBFsgEAgEgktJsIFXdtc8DiA3ZEHruh4SaWFVCwQCgUBwmYzpSjd3PVZ11XG5wXFpoc8CgUAgEFwxwW5ovLqBz1zWtbAFAoFAIBBcJpFuRHNNdU6sZzxaF+a1QCAQCASXFJ/PiySB1+dFQkKVdKKsdmRJxouOJEkENTX8hSf1qbmO3uBHOwQCgUAgEFwcpd4KJElCkiQsNhtSwE95wAeShCSFXnyiINeyqPV6RFu4vwUCgUAguORY7A4kQJZDo9AWi804FhLq0H4ZqqeA17Gmxbu+BQKBQCC4rJxPg6snk9UynHUaH9wWCAQCgUDw3dANUa77OtEq5PqEOKgHfxAu74EDB+J0Opk5c+Z5z/3oo49wOp04nU5RcgQCgUBwZQVb1+u3rOtbnqXr1877vqdMmYLT6aRz586oqvqDzqR9+/YZHYV9+/aJUisQCAQ/fHVukt7KYbZ3PRc3tAj7cuNyufjss88AcLvdfPDBByJTBQKBQPCDsqJp5PsaVT/la8Fyro/FixejaZrxe8mSJSJXBQKBQPDfIeB1LOoGRLrKX341BHzevHkADB8+HICNGzdSUFDQ4PkzZ84kKysLp9NJ165dWbBgQYPn5uXlMXToUJxOJ+np6YwfP56zZ89eUPxWrVplhOF0Ounbt68R55ocOHCAUaNGkZGRgdPpJCsri4ceegiPx2OcM3DgQOM5q565tgvc4/EwdepU4xmzsrK477776o33gQMH6jzf2rVrGxyD/89//kNOTs55n6Xq+IIFCxg/fjxOp5MHHniACRMm4HQ6GThwYB2vSNU1r7zyiqh9AoFAUI8gn2/IWW5IhK+mdb19+3Zyc3MBmDp1KikpKUBowld9/Pa3v2XWrFmG+JWXlzNt2rR6hb2goIChQ4dy8OBBADRNY9OmTcyYMaPJ8XvhhRe47777jDAATp48yeOPPx42ce3TTz9l+PDh7N69G4CEhAQ8Hg9Lly7l5ptvNsbdExMTiY2NNa6LjY0lISEBkym0zP3s2bP079+fhQsXGs/o8XhYtWoVgwcPDhPrXbt2MXz48DrP9/Of/7zBDs7kyZM5duxYnWeZOnVqvddMnz6dTZs2AaCqKnfddZeRtjU7F59++qmx/aMf/UjUSoFAIGhItBvcr1d95lIP21mHCu8VjfDixYsByMjIICUlhTFjxgDw3nvv1SvqH3/8sSEGubm55OXl8fjjj9cb9u9//3s0TcPhcPDZZ5+Rl5fH+vXrmzzbu6CggDfeeAOA++67z7jffffdB8CsWbM4fvw4AC+//DKappGdnc3u3bvZsmUL69evR1EUjh8/boy7//vf/2bu3LnGPebOncuWLVtIT08H4LHHHuPcuXM4nU727NljxDkqKoqysrIwa/Wxxx5D0zSioqL46quvjHNTU1PrPMvGjRuZNWuW8Sx5eXnk5eUxefJkABYuXMjKlSvrXOd2u/npT3/Khx9+yOTJkxk+fDiKohiehiqqrs3KyqJVq1aiJgoEAkEN/KoPv+oN/fm9+LweNC1IMKjj87jxuivwetz1f5RDD//GFnqE7YpFXFVVFi5cCMCwYcMAGD16NABFRUV1hGP58uUAOBwOZsyYgdlsBmDixImGJV4z7C1btgDwy1/+kg4dOgCQlJRkiNP5mDdvHpqmER8fzxNPPGHc74knniA+Ph6AzZs3A7BixQry8vJ45513jPOSkpJITk4GCLNiG8LlcvHll18alqzdbjfCueeeewD46quvADh+/LjhiXjsscdo06aNce79999fJ+z58+cbHaInnnjC2P/www+TkZFhdBpq87Of/Yw//elPdO/enR49emA2m7n11luBkBu9iiqre+zYsaJGCgQCQS0U2YwiW4hQrFgsNrSAiurzoPpCntMoq50IWwymhmZ868UVoPsgLvaKRnzJkiW43W7DQgZISUkhIyOD3NxcFi1axODBg43zDxw4YFhtVWLYEN9++60xQe2GG264qPjVvF9ttm7dWmffqlWrePHFF8nNzb2oJWbbtm0ztidMmNCglV/lXahi0KBBYefUlzY7duwAoF+/fnWODRw4kNzcXON5zxfWiBEjWLJkCXv27MHlcrFt2zYjH2+//XZRIwUCgaAWUdHRyLKMJElYJYnIyCjkgIoUlACQND9E2sM/yhFGtA0UxxX/IEeVO7i2u3TYsGHk5uby2Wef4XK5iImJCbsuMjLygu5T+/oLpWr8uDHefPNN/vd//xeAzp07G5b0mjVrDBE7H6WlpcZ2QkJCo+cGAgFj+0JczY11cAoLC5sUxuDBg3E4HLjdbhYvXmxY9r169frOaS0QCAQ/ROTd34Te6W23Q4dOAARPFGB2lVWf1Ca11tezapjXkkm54iJdUFDAxo0bAdizZ0+948aaprF48WLD7VufSDWFCz3/Yq7/29/+BoTGf2u6lgcOHNjoDPaG+Oc//0mXLl2a1HmorzPTEI1Z+rWHDxoT+yFDhvDxxx/z2WefGeP0NWezCwQCgaAGya1BktCtNmTVX9notkeTJCRv6Ldkt9Uao66z2PrKzvxuaFZ3bWouHerUKdQL2bZt23ldy5mZmcakp6px3wulalx7z549dY7dfvvt9OrVi88++4x9+/YZVnPnzp3rdDaaSk0XfX1xrrnM67rrrmvw3PrSpmPHjgCsW7euzrGqSWHt2rVrclxHjRoFwJYtWygoKEBRFOH2FggEggbwRMTgiYihVDJRpuqUqTqSYuJQfgG6w0GZrlPm8dZYR83VFWmontXdp08fYwZyzb9nn30WgNzcXGM8tmqiktvt5plnnjEEac6cOfVarVWTnubMmWOMv548eZLXXnutSXEcP348iqJQXFzM9OnTjf1z5sxh165dnD17lk6dOtG+fXujU1A1AU5VVV555ZV63ck1reGqCW8QcmH36dMHgFdffTVsVvXy5cvp3r07y5YtM86tGjt/+umnOXr0KABHjx7lpZdeqnPPqmVVubm5vPjii2HPUuW6vvvuu5ucf4MHDyY+Pt7oiAi3t0AgEDSMzW7HEekgJiaK2LhY4uLjAPhm117MFgvx8fHEx8cjB4vL0YvLr3qEV65cSVFRERCaVVwfI0aMMMSvaglXSkqKMaN53rx5xotFZsyYYZxbk2eeecZY1nTrrbcaL/jIz89vUjxTUlJ44IEHgJArOj09nYyMDGMd9v33309KSgpms9lw+3766ac4nU4yMjJ4+eWXjXidOHHCCDc9PZ3mzZsbcaz5wpNXX32VqKgoNE3jvvvuIyMjg/T0dO6//35UVQ0bx/7zn/+MoiiUlZUxYMAAnE4nAwYM4PTp0/UKa1Xavfbaa3We5c477wybuNcUhg4damwLt7dAIBA0TDCo43KVIcshQy0/Px9VDRAM+Co14iT7c/cjSzF2pPjIxq3pK2BdL1q0CAgts2pIHGJiYgyLeOHChYb1PJmWUVwAACAASURBVG3aNO6//35j6VJkZCQzZ84kJyenThgJCQksWrTIWKOsKAq9e/fmrbfeanJcH3nkEUOkNU1DVVWSkpJ47bXXmDZtmnHeyy+/XCdeM2bMMASsatZ1FW+++SbNmjUDQmO+VVZ2QkICGzdu5M477yQyMtJ47s6dO7Nw4cKw5U9dunRhyZIldZ7v97//fb3PMm3aNGbOnEnr1q3DnmXGjBk8//zzF5yPI0eONO47YsQIURMFAoGgAQJagBVfrDB+r1m/AavNAkC5y8X6Detp53QijfzZL/Tan7U0Xh1a4xWin817V6Tq9wRVVevM5J4+fTr//Oc/iY+Pr3cZ2aXilVde4eWXX2bQoEHMmTNHZIZAIBA0wC1Db+HUyTOkpbUhJjqGjVu3MfzWW5j//nz8Pj9Dhw6lVatW9b/wpKYVrYu0/F6xa9cu+vTpY7x0BULrq6teblJ7ffWl5OjRo4Y4V41/CwQCgaB+/H6VHt06s2v3TvIOf0unjJAnNKBq5OQMYM2ar1BVf9111NfSF7QEF87ixYs5d+4cP/7xjw33edXM8Li4uAZd4N+VmkvpnE5n2Fi1QCAQCOrSqmVLHJEOTIqZQ4cO06NHDzRNxWRWSEtLRQX+858ljVjUgu8lTzzxhDF+HgwG8Xg8REZGcuedd7J27drzvjTlYqlytffu3Zv3339fZIRAIBCch9jYGDRNp1evnnTr1gNN09E0nZzsHHQ9SIe2aQwadBOmxixoYVt/Pxk4cGCdT05ebqqWcwkEAoGgaQT8PiRJwmK2kJLSGpNJQZaVsDdLRkVFCYtaIBAIBIKrhdvtRjGZsNlsSFL9khy2V4xPCwQCgUBwZdACGkgSNlv4Fypra3GDX5YI+0a1EHCBQCAQCC4pZqsNe2SUobOSJIUdV1UVr9dbKdRCiAUCgUAguKLs3LmTAwcPIksgyQqKoiBJErExsdx0002UnTtDhMnSgEUthFsgEAgEgstK9x49uO7664HQh5R6XteDyOgYdE1HJkikPRJZlpo2mUy4vgUCgUAguLSUl4d/Z8NisSN7PSjlJWi6BpICR4+IWd8CgUAgEFwNrBZLtUEc1JEUCSUi9O0NyVWKbgLJaq12fQurWSAQCASCK8fOXbs4fvw4iqJw5swZvvzyS0wmE3FxcfTq2oWKUhdyZFT9Y9RCtAUCgUAguLx069qdLl26gKYTJEgwGERCR1ZMBMvLkBQT6MEmuL6FaAsEAoFAcMnRdQ1d19F0jYjISGx2O1ExsdhkGSnvAJIv9F1qk0gqgUAgEAiuPG6Pm8+WLsUREUnP63sCcLb4LN26diMYEVpfLSkmMZlMIBAIBIKrQVlpOZ27dGXUyFHkHc6jdZvWnD59GsWkoKa1Q7FaAYRQCwQCgUBwNUhKasmZM2coLCyktLSU1atXY60U54AWxKSEnN7C9S0QCAQCwVVAMclYLBb27d9HcnIySUlJJCeHvpwV6bCjSwpaRakQaoFAIBAIrhZ9+/ZFkiQkSeLIkSOsXPkl/fr148SJE8iSiVbx0cL1LRAIBALB1SI/P5+DB78FYNu2bWRmZrJlyxa+/vprEpvFQ7ByeZb4UpZAIBAIBFceRVFQVT8V5eVER0fTsmVLysrKuHnIEPbu3Yc1Jub8rm8h3AKBQCAQXB6SWrRk+/btHD58mPT0dAC6dO5CVHQ0PXt0Qw0ExBi1QCAQCARXA2+FB0mSGDp0KB6Pm/j4BADOnj1NaamLlJQUHHabEGqBQCAQCK4G5RUuAJo1T+Lw4VNs3ryF0tJSIiIiMJlMpKSkoJSXCaEWCAQCgeBqEPBWYHNEcra4mLy8PAbk5BATGwvorF27jsioSKRtG88j1GJ8WiAQCASCy4I9IgpJMWG12EhOTiYqOhoASZLJzs4GIBgRJZZnCQQCgUBwtdCDGharldTUFBYuXMhXX30FwJo1a/B6vQTi4oVQCwQCgUBwVcU6oLJ79x5y+vclMTGRw4cP065dO3Jzc5ETmgmhFggEAoHgahIMBmnRogUlpRVkZmaSl5fHyZMn0TQNxWQRQi0QCAQCwdXE63GTkZHBzp3fMO+9ubhcLoLBIN26dkNWpGtLqCdOnIjT6az3b+bMmd/rjOj9l1ye+uTED7agPfXJCXr/JfeCrtm3bx9Op5OPPvromnmOmTNn4nQ6fxB5MnHiRAYOHHhF7vXRRx/hdDrZt29fo+dda/n9XVi5ciWPPvooqqpe83Hdt28fDz74IGfPnv1e1cf/Nqs6Ozub8RPuZsyYMfTs2ZMSVwk7d+6+9izq5ORk1qxZU+fvwQcfvKBwRIG79hg4cOBl63BdzrAFgvo4dOgQixcv5vTp0xfcobnSnD59mmXLlrFnzx5RZ65R/B43VrOJr7dv5+OPP2b+/Pls3boVuAY/c6koCsnJySLXBALBNc0vfvELfvGLX3wv4pqTk0NeXp7ItGvZotY13F4fUdExDM7MJDIyEr/Xjz3C/v0bo65y5y1YsICsrCycTid9+/Y1CmFN1+XDDz8c1ns9e/Ys48ePJz09nfT0dMaPH4/H4zGOz5w5k4EDB/L000+Tnp7eaG9z5syZxv27du3KkiVLLug5nvrkBK2m7WLelnPGvnc3FpPx9B5aTdtFxtN7WPh1CQB5Z3y0mraLN1afCQuj919yGf16HjsLPbSatov/7C41jr2x+gytpu2ixK0Z+3634Bid/6faNVlUFmDU/ztEyh9202raLrL/eoADp3xh92g1bRczlp6k27P7aDVtV1j80x4PXTfq/x2iuCJwXiuioKCAWbNm1XGRVuWL0+kkIyODp59+Oux6VVV56KGHyMjIMPJ7+/btTQq7ttX92GOPGfdKT0/noYceOq/rcu3atfTt29eI39SpU+tc88orr4SVhwULFjRaZmo+QxWzZ882jmdlZZ3X2jl58iSjRo0yhoeGDh1ab2PcUF2pIi8vj6FDhxppMn78+DAXaX3DAVVu0sZc3Xl5eQwePNh4nvrSpDaN5XUVS5YsoXfv3kZ+1M5Dj8fDfffdR3p6uhHG2rVrw8Ko2RY0lHaqqjJ16tSwuNQMp750aaysDBw4kIcffhgIefwmTpzY5LapvrRfuXJlddvx7rs4nU5cLpex7/HHH6dnz55h9WTfvn3fqT66XC7juQSX2KL2emnZsiV2u43IyEgOHz7M4k8Ws3z58u/nZLLCwkLmzJnD3LlzmTt3LhUVFTz00EMAPPjgg6xZswaAJ554wthWVZVx48aRn5/PggULWLBgAXv37uXee++tE/aqVauYPn06w4cPr/f+jz/+OLNnz+bll19mzZo1DBkyhClTptRpUBpi3pZzzF57hr/ckcz4XnHGvt8vKmRcz3g2TMvgts4xTJl/lNUHy3EmWunQwsqS3dWVMO+Mj6Pn/IzoEk3XZDvxESY2Hq4wjn91sAyAf2+v7ghsPuKmrzMilB6aTs5fD3CsRGXh/U5W/DYdh0Vm1P87RFFZuOi+ufYMt3SK5s+jQx80f3bJCWavPcODOc3YMC2D7m0cfFjZqaiPoUOHsmbNGpKTk5kwYQJr1qyhffv2xvHnnnuOvn37smbNGoYPH87//d//sWzZMuP4T37yE9auXcv777/PsmXLSEtLY9y4cbhcrvOGXZtFixYZ95o0aRJLly7lmWeeafD8jRs3cs899zBo0CDWrFnD888/z0cffcT06dPDGuxXX33VKG93330306ZN49NPPw07Z/bs2cY5Vc9QJYhz587lz3/+Mw8//DBr1qzhgQceYNasWbz++usNxm306NG43W6WLVvGhx9+iKZp3HHHHWGi1VhdASgoKGDo0KE4HA6WLVvGggULyM/PZ9y4cd9p7NXlcnHHHXcgyzIffvghc+fO5aWXXjrvdY3lNcD27duZMmUKQ4YMMfLj888/DxOOiRMnsm3bNhYsWGCE8fOf/5yCggKjLRg8eLDRFixbtgyHw8Edd9wR1kF54IEH+Pzzz3nttddYs2YNXbt25ec//3mDnZPzlZX58+fzxBNPABjHL6RtqiIzM5P4+Hi2bNlSXd8r197WLHObNm2if//+l7Q+xsTEcN1119G9e3ehrJeJXbt2GR3dYcOGAVx7Ql1QUFBnIlntCTFWq5VPPvmE7t27c+ONN/LAAw+QmxuayBQdHW24zuPj443tt99+m7y8PObPn0/37t3p3r07zz33HFu2bAmreFarlRUrVjBu3Dg6d+5cbxzXr1/P5MmTufnmm0lOTjYsn+XLl5/3+bYVuJn2YSGT+idyT594Y/+fPj3BrVnR/M/IlqTGW3hpbGs6tLDy+urQ+NfILjFsy3cbFvKir0swyRI/ui4k9H2dEXx91G2I8LpvK2gTZ+GL3JBgl7g1Dp/xMSgjCoAXVhTh9gf5bEp7eqU56NTSxqcPtSMQ1Hli8fGwOD+Q04zn70zm3htDL4x/Z2Mx43rGMW1oC1LjLfzPyJaM6RHb4DPb7XaSk5NRFIWoqCiSk5Mxm83G8YceeogpU6aQnJzMiy++iMPhYMeOHUBobC0vL48ZM2bQvXt30tPT+cMf/oCmaXz55ZfnDbs2d911l3GvadOmMX78eD744IMGRWnZsmV06dKFGTNmkJyczKhRo+jbt6/RMKqqyuzZs5kyZQrjx483wh00aBCzZs0C4Pjx43XOeeedd7BarcyePRsITUxKSUlh4sSJJCcnM2XKFH71q18hy3KDVlVRURGTJ08mPT2d7t278+qrr9K3b9+wMdPG6grA888/T0JCAh988IERzvz588nLyzPidjG89957uN1u3n//faO+ffLJJ41ec768rlnHaubHM888Q1xcXJhgTpgwwQjj9ddfZ8iQIUa6vP7667jdbiNd0tPT+eCDD9A0jWeffdZI3y+//JLnnnvOqOdvvPEGycnJRr5eaFlJSkoiPj5U55OTk43tprZNNenfv79hGKiqyurVq0lJSTGsbJfLRV5eXr2TCb9LfQSYN28ed999t1DUy4gW0CguLiYyMpLo6Ohrb4w6OTmZ+fPnh+1TFCXsd2JiYljBatmy5XnD3bhxI06nk5SUFGNfnz59AMjNzSUzM7PesOujqtGo4nznG4mv6dw95wh92kbwPyOr47yz0EOpV+O2zjFh5/do42D9oZCVPLFfIi+sKGL+1nM8kJPIqoPl9GsfQawjlDaDMqKY9mEhqqazfF8ZFpPE0yNa8uv3j4Y6F3mhcIZlhV5Rtz3fTXoLK82jqouAWZEYnBHFN8fCXW6p8ZawuLr9Qfq1iww7Jz7i4otSzTypyoMqmjVrFmY5AJhMF3+v6MpX9FVx0003MW/ePL799lujDNSkthu+9v23bduGpmkMGjQo7Jw5c+ZUezI2b0bTNKN3XFVmsrKyOHDgAACDBw/myy+/ZOrUqfzyl78kPT2dRx99tMHnyMzMpHnz5jz33HPIsszAgQPJzMysY4Gfr67s2LGDPn36hJ2TkpJCVlaWMZHlYti6dSupqakkJCQY+2pu10dT8vrmm29m1qxZ/PSnP+WRRx4hKyurjmj06dOH9957j8TERO644w7i4+PD0mXbtm107NgxLD5ms5khQ4YYglQVj8GDB4eFvWrVqgbjf76y8l3bptrDOFVu9TVr1mC1Wnnqqaf49a9/bTwjUKdcftf6KLi8eCvK6dGjB4s/Xkynynzv3bv3f89ksuLKl57XN+Py0KFDFxTWyZMn+eMf/8i6desuyD34f5uKyWxpY2ehB1XTMSsSAKdKQ2H8+v2jhrAaFV0OnRPrULghLYIlu138uGcc2/LdvPCj1sZ5w7KieeTfx9iQV8HyfaXkpEdyc2YU/oDO6oPlrPu2nMyWNkPY84v9OJtZ6sQxKcZcR6jro0ML6xUrEwcOHODRRx9l3759aJp2ScOuEi63213vcVVVef3115k9ezbl5eV1GrOTJ0+et0GusuSGDh1a51hVebz77ruxWCy89NJLLFy4ELPZzLhx43jyyScb7AguWbKEqVOnGg12Wloaf/3rX7nuuusuaBhpxIgRdfY3b978O6dtamrqJc/r6667jnfffZdnn32WMWPGoCgK2dnZ/P3vf8dut4c8Pu+8wx//+EdefPFFZsyYQbNmzXjqqaeMoaz8/HzatWtXb1moEuoTJ05cUCe8KWXlUrZNgwYNQtM0tm3bxhdffMGgQYPIzs7G5/OxceNG1q9fT1ZWFjExMUL9vk9C7akgMTGRMWPGUFZayv79+ykqKvrv+XpWfHw8N9xwAy+88EKdY1FRURcU1ujRo3E6ncb4V1UP93z0aRvB3Ilp9H/+APe8fYR5E9sC0CI61Bi8+ZMUOifbG7x+RJdonvrkBHPWn8VhkfnRddXu5liHQps4C18dKGP9oQp+e1NzzIpEv/YRfLLTxf5T3jArODXeQrkvWOceR874mpQGx86pdG0krpcKl8vF8OHDGTlyJG+//bbhLrxUS1yqGkKHw1Hv8enTp/PRRx8xa9YsevbsidlsZubMmSxdutRwZwIEAoFGLcUqT0xtQa/pLRo7dixjx47F4/GwfPlyHnnkETwejzGWWZuEhAT++c9/hvLtyBH++Mc/Mm7cOL766itatWrVZA9WaWlpnf35+fkXJbQ1KSoquix53b9/f5YtW4aqqmzdupUHHniACRMmsGjRIkNcn3/+eZ5//nmKi4uZPn06U6ZMISoqipycHFJTU8OEtIrDhw/X6cCpqtpksT5fWbmUbVNMTAwpKSmsW7eOdevW8dvf/haz2UxOTg5Lly5l//799Y5PC659TCaFBQsWEBERQVFREQMGDPphv5msprXbrVs3du/ejc0W+kpJ1V8wGKzjDm2MqrHBu+66yxBpVVXrrfi16djShlmReP7OZL46UG7M+M5MsuGwyKw/VEFqvMX4s5tlmkVWN+w/uzEBkyzxty+KyEmPNCzyKvq2i2Dh1yUcPec3XNwD0qNYfbCcb456GNKxutJfl+rgm6OesIljqqazPq+Cbq0bFuCuyXYcFpnl+8Ib98ZmfTeUJ03hyy+/RNM0fvGLXxgNd0MvbWhK2LVFacOGDSiK0uAEtK+++oqePXty4403Gg12zftff/31KIpSZzjkD3/4gzEZqMrC3bx5c1jZUxTFcL/edttt/OUvfwFCY4ijRo0iJyenjiu4ig8//JBevXoZk6zS0tJ48skn0TSNzZs3Nzl9u3fvzhdffBGWdgUFBeTl5RkzhqtEq+aM4sZenAHQs2dP9u/fH3be+a5pSl7/6le/4v777zcE+cYbb2TChAl88803AOzcuZNevXoZ47fx8fG8+OKLRl5X5dn27dvDwlZVlbVr1xqTpHr16gUQNrMaYPz48fzpT3+6qLJyqdumfv36sWDBAgoKCgwX94ABA/jqq6/Yvn07AwYMuOT1UXAFdMvvY+zYseTk5GCz2di/f++1J9SaplFYWFjnr75ef2M4HA4+/fRTDh48GBK5n/0MRVEYOXIkO3bsoLCwkKefftqY/dlU2rdvj8Ph4LXXXmPDhg2sWLGCIUOGUFxc3OQwctIjGdczjic/Pk5RWQCzIvGzPvG8teEsT31ygvxiP6sOlHHrq9/ymw+OGdeZFYkhmVEEgjqju9WdvHVzZjRFZYEwF/dtnaM5es6PxSSRk15tUT8ypDkOi8ytr37LliNu9p7wMuLvhwgEdabf3rg19rM+8by/9Rwzl50iv9jP1IWFjc76rmkdrFixgsLCwrBGvzGqRO7ZZ59lx44dzJ8/n1tuueWiw/7ggw+YM2cOhYWFvPrqq8ybN4+77rqrQaupS5curF69mvnz57Njxw4eeugh/v3vf1fnidnMpEmTjLCqwn3//fcZPXq04fq85ZZb+OMf/2ic8/HHHzN06FDefPNNAHr06MGcOXPCjq9evbrBxnbAgAGUlJRw7733cvDgQQ4ePMizzz6LoigXNC45depUzp49y1133cXBgwfZsWMHP/7xj2nVqhWTJk0K8xY9+OCDRtxqzhyvjwkTJuBwOBg3bhw7duxgw4YNjBw58jvndZ8+fVi+fDkzZ86ksLCQDRs28N577xljupmZmSiKwuTJk416XrUk6uabbzaew+FwGG3BwYMHueuuu1BVlSeffNIIZ9CgQTz22GMsX77cCGfr1q2MGTPmosoKVM+RmD9/PkePHv1ObdNNN91EUVFRmIt7yJAhFBQUYLVajTS5lPWxqrMyd+5coaiXCXeFGy2gsXTpUgYPHsyIESOuPaEuLCwkOzu7zl9jy1Tq4ze/+Q3r16/ntttuM1xFK1euJDU1lbFjx5Kdnc2aNWt46623LsjFZzabeffdd3G73dx999385je/4YEHHsDpdLJ3794mh/PcmGRMssTE/8tH1XSeHN6Sv9yRzPtbi7lxZi73vpNPn7YR/L/xbcLdfu0icVhkhnWOrkeoozDJErdlVR9LibeQ2dJGr7Rw165ZkVj9aAdax5q5c1YeQ14+iNsf5PNfp4dNMKuPJ4e3ZFL/RF5ffZobZ+aSe8rb6KzvKn73u99x4sQJsrOzm+wWTUlJ4dVXX2X37t2MGTOGl156iRdeeAFFUdi9e/cFh33HHXewYsUKsrOzeeWVV7jzzjsbXZ713HPP0bNnT5588knGjh0LwH333UdBQYFhjUybNo1JkyYxffp0srOz+de//sXMmTMNoQZ44403ws75wx/+wMSJE/nVr34FhGYx1z4+fvx4YzlPfW7vZcuW4Xa7GTp0KEOHDuXs2bO8//77FzQumZKSEhbO2LFjSU1NZfHixUbnJSUlhZkzZ/LNN9+QnZ3NjBkzjElLDRETE8OiRYsIBoOMGTOGSZMm8bvf/e475/U999zDzJkzmTt3LtnZ2dx7771cf/31xuQ9s9nMkiVLwur5xo0befXVV42OgNlsDmsLhg4ditvtZunSpWETzN544w369+/P5MmTyc7OZseOHbz11lt06dLlosvK4MGDuf7663n66aeZMWPGd2qbsrOzURTFaOMAWrVqRVZWFr17974s9dHlcrF9+/awWeCCS4siSxQcLaBHjx7GXBFpxD2T9GCwetKGruvowWD1duXf5+//S6TgNcDo1/NoHmXiHz9JEYlxgQwcOJBhw4Yxbdo0kRgCgeCqM+GuO0GSkJCQKycOy7JMTEJz8vPz+frrr+nevft/z2Syq8m/NhV/p+t/0jue4yUq/1h7hs1HKlh4v/OShHu5+EnveJHpAoFAcJFIEnz99dfcPGQImzZtFkL9fRGusW8eprDEz1PDW3Jj5dvFhCAKBALBD49AQCMmJgaTYqZL1y5CqL8vrJvaQSTCd6Sxl1UIBALBtYLqc9O7d28WfrgARTE1Tag9FbJIOYFAIBAIrgB+v4rNYWXwTUNITk4+v1D7fZJINYFAIBAILjNaQEMN+ghqAXzuCkxmC5J0nu9R+30SWkAXqScQCAQCwSXG5/UQDGrouo5E6E2FJrMFi9WGYjLjrnDj8/kbFmq/T0JTQyJtMgmxFggEAoHgUmOx2lBkBaXy9cKyLIemfVdpsb8Boda1IFrABOgooX8CgUAgEAguIVab3VhHXR8mRUJV/fW/mczrDem3UvlWRbNVKLVAIBAIBFcSSVYIBLS6Qu0pD+1SKt3dFiHSAoFAIBBcenSMN4HWa1GbTAT83nChdpeH67ZZ0URCCgQCgUBwGfC4y3CXlzZiUcvogUC1UPu91T5yxaRjNmlIJrF+WiAQCASCy0FEXHPMFit6sAGjuHJSmVwl0oFAaIdiDrm6JUWItEAgEAgElxPJbCWgBRo8Lss6st9XLdImMS4tEAgEAsEVQdcCWMxmNK3hYWaLxYYcCH0mVYi0QCAQCARXEHdZCbLJgt6IUCsmJbSO2hBpm44udFogEAgEgitgUteY8a3rYS86QdfRAioBPYhsqlwrbbF9fxX6/vvv59ixY8bvDz/8kKeeegq/33/NxXXTpk289tprooAKBALBfzuSjK4FMFksaFoALaDi8bhxl5ZQXlqC3+cFKt/1bTZpwA9j8timTZtYvXo1zz77LBaLRRQEgUAgEFyTaFoAn8+LIsl43BWV7/q2Yo2KMaxrRZYxmZUAuty4SOs+z/fiofPz83n33Xd57LHHiIqKMva//fbbbNq0CVmWmTRpEj169OCFF16gbdu2jBkzBoDp06eTk5PDqlWrGD16NF27duXAgQP84x//4K9//SsAc+bMoVWrVgwbNoytW7fyzjvv4Pf76dChA7/85S+Jiopi06ZNrFq1itLSUlq2bMnkyZNZunQpH3/8MbIs0717d1E6BQKBQIDZbIGghskRSSCgYndE1HnXN4AsmZTzirQ14Pse9Ew0XnrpJe655x5SU1ON/YsXL6awsJC//e1vPPLII8yePZvi4mL69+/Ptm3bAHC73RQWFtKzZ086d+5Mbm4uANu2baOiosJwqx86dIguXbpw7Ngx5syZw+9+9zv+/ve/k5iYyD/+8Q/jnoWFhTz00ENMnjyZPXv2sHTpUv785z/z0ksv4fP5ROkUCAQCAWaLlYDqQ1ZM4ePVtWjUlA76PFhUHzExidf8A7/99ttYLBYUJbzjsW3bNkaOHInFYsHpdNKhQwcOHjzI9ddfT1lZGadPn2bTpk20b98eh8NB+/btDaHevXs3N998M7t27cLtduP3+2ndujUbNmygZ8+eOJ1OTCYTY8eO5cCBA7jdbgA6dOhAq1atANi7dy833HADcXFxWCwWevXqJUqnQCAQCHCXlyJJlTIsyTQ0m9vUsCXtxap6iYlNRL9CU8HLy8s5evQoxcXF9R7v169fg9cOGTKE1q1b89JLL5GRkWG4vk+dOsXf//73sHPbtGlD79696datG5s2bSI3N5f+/fsD0KlTJ2bNmsXp06ex2+3ccMMNzJ8/n2bNmpGWlmaEWSXEAA6HA6DeeNc+93ysW7dOlF6BQCC4SsTHx9OmTRsiIyMv+71sjghUf8jLqyBg2wAAIABJREFUajKZ0bQAsqI0Tah1nxdrwEt0bOIVW65VXl7ON998Q7t27ejYsSOSJF3Q9ampqbRu3ZqcnBxmzZrFo48+CkBCQgL33nsvHTp0qHNNdnY28+fP59SpU/zmN7+pTCwTbdu25aOPPqJTp060bt2akydPsmfPHrKysgBo0aKFYT0DxnZ8fDyFhYVh96h97vlorDMiEAgEgsuHruucOnWKb775hm7dul12sVZ9XmTFREXJaSRC36auD7muSHuwBrzExl5Zd/fRo0dp164dSUlJFyzSNRk1ahSlpaUsXrwYgC5duvDBBx/g9/vx+/28/fbbnDhxAgi5qMvLy8nMzMRkqu6zZGVlsX37djp37gxAZmYmGzdupFu3bgDceOONrFu3jry8PAKBAP+fvTuPj6LOE///qquvpBNycgQD0xCBjWJEHBGNMohGZcBjFjDoekycnyCDs+owjNeiq84aPPAh4wK74DWLB8wwjA7rN+oCGlBGkGEUBUWioEGEJOTsu6p+f3TSpEkCQROI8H4+HjxIuitV1e/6VL37c9Snli9fzqmnnhqvWbc2YsQI3n//fQ4cOEA4HGbjxo1yNgghRA+kKAp9+vRh0KBBfPXVV92+PdM0cThdOJ1u3EletJb7pQ9Xo7aDgXhz97FWU1PD0KFDv/d6dF2npKSEuXPnUlBQwKRJk1iyZEm8xnzOOefQt2/f+PI5OTltarGDBg3CMIx4Lfzss89m586dpKenA9C/f39KSkqYN29ewqjv9gwaNIjLLruMu+++Oz7qWwaUCSFEz9W7d2927tzZ7duxLAvLMtH1w99KrPz0+pttyzJjSToaJDU1E7t59JllWdh2rDlg6dLnunWH169ff8ybfQ8cOMADDzzAY489llCjFkIIcXI7Fjlp0pUTMM0obk8yqtr8pKxDbs/SVDVWo25J0r16ZbU7cGxfXeUJdxBWrFjB//3f/3H99ddLkhZCCHHMGQ4H4YYAYAMdd/nqdsgfT9Lt2VdbieoIn3ABuvrqq+OTnQghhBDHg6IomNEo6mFm0lSdkY6T9Le1lSjOMIbhlGgKIYQQXV2rdrqJRDoet2RZFnpaWna7z8L8trYS1RnG0B3YMvhJCCGE6HJuTxKKojTXrCOY0SimaRKNmtiqgtvtaf8+6m9rK1EcIXTdCaEQGW55uIUQQgjRpVQdRTPY8803DBxwCo2NTRguNy5PMk6nC6fTga4bbRP1t7VfozhCOBxOrPp6+mZlgKFKQIUQQogupDucbP/0UwYMGIDD6aZv/1NQVbXNXCIJGfhAcB+qM4zD4UQJ1dPPm4Li0CSaQgghRBdLSkoiMzOT3bt3U1VV1XHFu+WHYLCB+qY6DMOBU4mQlZGFkuqSSAohhBDdYPeur6mvrSU3N5e1a9fG5zBpN1GHzCDfNu0lNdVNKFxPalIy68o/4sMPd0skhRBCiG6QO6A/vkGD+Prrr4hGIuzfn1irtm2LYDAY66PeW/sVqaluFCVI/16ZGLrG+YWn87+r3iUSDXFmwWCJqBBCCNGF6msPsP69DVxwwQU4HE6+2VNJRkYGgaZGQpEoAA6Hgbr3wFe4PSqKEiQ7OZWvv4o9qtHQNS67bBT7vq1m8993SESFEEKILnSgrh6Px4NlRjlw4ABVVc2PSlZV3C4XbpcLw3CgKnYIHCqEwlimzfbtsYnIQ6Eouq4xbtxI9u+rkYgKIYQQXSgtrRder5ftn37GWSNGcNG4izBNE1VJvNNKNTwOvIpNdkYWTqfO0KGD2PTBZ6z8czl/XvEOfn+EoqJzevSHHTNmDPfffz/FxcXk5eWRl5fHjBkzCAQCzJo1iyFDhuDz+SgqKqK6ujr+dyUlJYwZMyZhXStXrsTn8yW8tnjxYvLz8/H5fOTn51NaWprwfnV1dcK2i4uLCQQCR7Wd0tJSxowZw1NPPRXf1tixY6moqGDVqlUMHz4cn8/H8OHDKSsrkxIuhBA/cF6vl+Gn/RMFw0/Hiob5ZtfnhELBNsvpLkeEYJONkRq7DcvlddCwy8+Ua37C6tV/5/VV73L+2BE9/gMvXbqU2267jccee4wVK1Ywb9481q1bx7nnnstf//pXvvzyS26//XZmzpzJiy++eFTr/d3vfsc999zDpZdeGl93SkoK06dPJxKJMGXKFPx+P8uXLwfghhtu4MYbb+SVV145qs+we/duNm3axMqVK6mqqmLatGlcddVVJCUlsWjRIjIzM7njjjv45S9/yaZNm0hNTZWSLoQ46WzatIlly5YddpmRI0cyefLkHv056muqQFFQUFBVBVXTiYZDaC5PYo06K7UX27d+SSQam0bUDoc566whVH57gCR3EmPHnUXZX9f3+AN31VVXMXPmTHJycpg5cyb5+fkYhsHChQvJy8vj4osv5oorruDDDz88qvWuXr2a3NxcSkpK4uu+9dZbY48iA5577jkqKip4+eWXKSgooKCggLlz57Jx40a2bdt2VNtKT09nyZIl5OXlce655zJt2jQaGhp44oknOPfcc8nLy+Oee+7BNE0++OADOVuFECelIyXhH0KSbo+u65jtzPutvvXmB3y79wAHaur561/fpf8p2aSkuPnHB9s586wfkZKSzNBhA3v8B8zIyEj4PTs7m+Tk5ITXUlJS8Pv9R7XesWPHsnv3bmbNmsWOHbFBdb/+9a+55ZZbANiwYQM+n4/c3Nz434waNQqATz/99Ki2lZycjGEY8d/79u0LkFBzbvm5vr5ezlYhhCTrEyRJA2iajhmNtE3g4y4+i1Aowq4vqxg6dFDCm3//4Auqaqo47bQfnbSF4dprr8XhcDBv3jz+9Kc/YRgGU6ZM4b777sMwDGpqaqioqGjTrw2wc+dOOZuEEKIbkzUQbwb/ISdpABQF27KIBBoJhYLYlklqVr/m+6i/qaL8nc2cOWJYfPmLLjqbDz/ayemn+8jOTj+pC8OkSZOYNGkSgUCAN998kzvvvJNAIMCjjz5Keno6P/7xj3n88cfb/J3X65UzSQghjkGyrqio+MEl6Ug4DIoCto2iAIqK7nASjUZxOl2EQkHMkD82M9kpp/TmkvGj+PvmbXz91T4AnE6ds0bk4XTY6NqJmaj79OlDY2NjwmutR4UDXH755TzyyCMAuN1uJk6cyAUXXMDGjRsBOOOMM9i6dSsul4ucnJz4P8uySElJ6fR2hBBCfPdk/YOsSWs6muFAd7ownLH7qTVVw3A6UTQNp9NFMOBHfeP/vc+Gdz8js5eXq382hvLyrfzjH7ti31B2fUxS+kA0TT8hD+4FF1xATU0N99xzD5WVlSxZsiSelFuceeaZLFmyhJdeeonKykpeffVV3nnnHS688EIgNsJb0zQmTJjAli1bqKysZM6cOYwdO5Zdu3Z1ejtCCCFOLk53EobT3fzPhcebSjh88PYsRdOwzChqwZl5aA6bP/3xHRxOuPpnF9DYWE8kapLT659wf1uPHY2ekEEqKirilltu4Y9//COFhYUsXbqUGTNmJCzz8MMPc/PNN/PQQw9RWFjIXXfdRXFxMffeey8QG9y1evVqBgwYwKRJkygsLKS8vJxnn32WAQMGdHo7QgghTm6qFhtMbJtm/DWXJxnltn+dZFumxZYtX9LQUM/555+O3+8nHAbPtwHU+nr8A/J44SjvCT5a69ev57zzzpMjJYQQ4rg7FjnpuuuuQ1EUFEVBbX4GdTQSwgwFcLhj91JrqnrwMZc/+lFvgoEQkahJQ0MdKQ06Wn09oX79CZthOWpCCCFEF7LNtq3VDqcb04yCbR+sab+/cTv762p5/29bGTosl8amavr0zscKNhLq3Y+gpscn9xBCCCFE14i2M10ogMudRDh0cOIT1QorbPnbDn7kyyUzK4W0lCEARPr1J+Ryo0iSFkIIIbpc64FjrRnuZKLhYLxWrY86bwiWafHt/t24rSzsfTVE03sRDoQkikIIIUR3sS1s20JRtLbJ2ukmEg6jud2xPurPv/iQ1ORBULETqvbTWNcoARRCCCG6UctDOFqzzCiWbeFMTiHaPO+33tRUR3Z6Pq599RAKEjzFB9gSQSGEEKIb6bqDaCiAbjgIB/1EIyFs28aTkobD6W6udduoZtRBWlpvaKgn1P8UIpoi0RNCCCG6maZrRCJhAg0HAHB7knF7kuODzHTDSdSMoqen5WKaJpG8IYSamhKGhAshhBCi+yQlp6AoKqoaqyRrmkY4FIj97HBiRoKo5p59mKZJoKlJIiaEEEIcS0rbVmxF1TCjYXSHEzMaRbUaaqk/0DMGj9lSmxdCCHGS5yJN0wkH/KhK7PZoNZKVjW1Zxz0w6enpfPvtt1JChBBCHFfffvst6enH76mRhsMRH/Gt6Q7UYMTqEZOanHLKKezcuZO9e/dKzVoIIcRxqUnv3buXnTt3csoppxy/HWluDrdsC8PpQldUFXpAjTo5OZkzzjiDr776ip07d0qJEUIIccylp6dzxhlnkJycfFy2b1kW0XAI07KwzSi6w0WPetB0cnIyw4YNk5IihBDi5KnJWyahcCT27GndwOlOwpWShqqoKKrasxK1EEIIcbIIhUJYZgRV03G5k9EdTjRNQzlkJLgkaiGEEOI4sMwoSb0yUVUt/jzq9sijsYQQQojjwbZQlCOnYUnUQgghxPGgqNj2kQdzq4nJ3cKMRCR4QgghRDdTNR2zebrQTifqoL+RcDhIOCLPohZCCCG6k2EYhJsfwHE48cFkkXAId6qDXr0yqN5bS6CpAYfL0+48pEIIIYT4njVqVcWyzHbfs8wooWAAKxKM1ajNSBjbNElLywQgLTsFVdOxTFMiKYQQQnRbstawouF4cg40NdJQ8y3+hgNgmXiSvLEadTgUpHf/rLYZ3bZktJkQQgjRTXTDINBYhwKgqBgOB+4k78HWbEVBDQX9pGaloOlGwh/37p+FrhuEgwGJpBBCCNENNE1H0w3cSV7cniQcDmebLmdV1w2Sktqf0zQty0tSmptAU6NEUwghhOhqioJhOA9f687sm4ZpdnwfV5InCWc/hwRTCCGEOA461QWt6TLTqBBCCNFjE7UQQgghJFELIYQQQhK1EEIIIYlaCCGEEF1ARokJIYQQPakGHYliRCJouoaa1UcStRBCCHFc2DbOYAg7ORnD40GzVfRQE4rLjR0Jg78JXTckUQshhBDHg3f3FygoKGn5+MNRvviigqrqGqLRKP369uGMggJUTZE+aiGEOBkEAgF++tOfUldXd9J85rq6Oq666ioikUiP3L9Q/x/RmDcM03Dzzd69VNccoLCwkLFjx9LQ2MTbb7+Doqg9L1FHIhFmzZpFfn4+Pp+PIUOGMGPGDAKB7ptz/Kmnnopvb+XKlWzbto3p06dTXV19Up/Yjz32GM8991z89zFjxlBaWipXvBPMr3/9a8rKyo75dn0+3xHL06Fl8GitXLkSn893Qh+/kpISSkpKjrjchAkT6N27N6mpqd2+T8fzGtpyzLdt20Zqairp6elMmzatRx47Iy2dlJRUDKdBVlYm4XAYl8uFy+WisLCQL7/8kkgk0rMSdSQS4bLLLuONN97gvvvuo7y8nAceeIB169YxYcKEbvlWtHnzZp588kmKioooLy+nsLCQ/fv3U1ZWxscff/yDPoFLS0sZM2bMd75wrV+/nr/85S/ddpFeuXLlcYlBT3esYtPizTff5K233urWbXzXL3ndWQZPJgsWLKCxsZGFCxd2W2JsrSddQxcuXMimTZt44YUXetxx0Y2DD8NKS0ujrvZAwvvZ2dnU1NT0rD7qBQsWsGvXLlasWMHpp58OwDXXXMPAgQOZOnUqy5Yt49prr+3Sbe7evRuAX/ziF+Tk5ABwwQUXUFFRcdKf3H/+85/lCncS+Mc//iFl8AQWiUR4+umnueuuuzAM45hssyddQw3DoKSkhMcff5zi4uJjFoOjpSgquuEgEongcMSer9HU1ITb7UZt7EFPxlqxYgUjRoyIJ+kWo0aN4vTTT+ejjz6Kv1ZdXU1xcTF5eXn4fD6KiooSCsa2bdvw+XwsWbKE4uLieDP6nDlz4suUlJRwxx13ADB+/Ph4zat100nrmvfo0aPx+Xzk5+ezfPnyhJpPy/YOrQkdWpPw+Xw8+eSTnHPOOQnfQpcvX87w4cPx+XwMHz6cVatWHfHkmzFjBkOGDMHn8zF69Gg2b96csJ1Fixaxe/fueBPjmDFj4p/X5/PFm8taPu8LL7zAkCFD4q+PGTOmTZNaIBCIxz0vL48ZM2YktHSUlJQcthZfWloa//mOO+5IiEHrY5qXl0dxcXGbLo/FixfHuyny8/MPW0trLwbtxftI62mxbt06xo4dm9Al0/LZO3v89+7dy8SJE/H5fG3KbWdj0155b/m8CxcupKioKL6PpaWlbY5ZcXFxwjFrHZuWz9Hev9bnQ2lpafw4HFr22jv2u3fvZtGiRW3W01KOW/bt5z//ecK+HVoGA4EAP//5z+NxGD16NOvWrev0Naa6upozzjiDcePGxbdzuHJXVlaGz+djw4YNCfucl5fHnDlzKCkpYcKECQnbGDlyJPfcc0/897q6uvj51dny13K+zpkzh7y8vPj7h8ZrxowZRKPRw37mVatWEQqF+OlPf9omFkcqU2PGjOE3v/lN/Bp66Dl/pGtK62PdFdfszlz72nPDDTfQ0NDA6tWr46899NBD5OXlsWfPnh6TA9PS0qiqqiISifD++++Tnp6ON9mL2ljjZ8+Xe/j2q30cqGrEjB6/Tvfdu3czYsSIdt/7y1/+wiOPPBI/UGPHjmXXrl0sX76csrIyPB4PV111VZs+kblz5zJ69GjKy8sZP348f/jDH+L9cY8++ij33nsvAM8++ywvv/xyhyf39ddfj8fjYcWKFSxdupR58+Z9r5aDSy+9lP/4j/+IF+rZs2dz7bXXUl5ezoQJE5g5c2bCxeFQ1113HevWreOVV16hrKyMgQMHMmXKlPhAkfLycqZOnUpOTg7l5eVMnz6dl19+Of55y8vLefTRRxPW+fTTTzN79uzD9ne98MILnHrqqaxdu5bf/va3vPHGG8yaNavTn3369OmUl5cDcO+998Z/jkQiTJkyJX5Mly9fzieffMKNN94Y/9ulS5fyu9/9jjvuuIPy8nKmTZvGokWLWLBgQbvbai8GLfFvHe97772XxYsXHzZZf/TRR9x0002ceuqplJeX8/vf/55169Yxc+bMozr2V155JX6/n7KyMlasWIFpmvHBLoeLTWfL+7x585gxY0a8vC9atIhRo0bFj9m///u/87e//Y2HHnqo3f0bPHgw5eXl8X9r1qyhd+/e+Hw+Bg8eHE8iixcvju9jS9lrrz+ypUspJyeHqVOnUl5eHl8PwPPPP09SUhJr167ltttuY+3atR0ez5Yvgh988EE8DgMHDuSmm26Kt4wd6cvtlClTyMrK4rXXXsMwjCOWu7Fjx+LxeHjttdfi61m9ejWmaXLFFVdw4YUXsn379oQvbDU1Nfzf//1fQjkEGDdu3FGVv8rKStauXctDDz3E+PHjAZg5cyZvvPEGjz/+OGvXrsU0zfj6O7J27VqGDh2a0Dd9NGXqz3/+c/waevPNN/P6669z//33AxzxmvJdtne4a3Znrn3tSU1Nxefz8frrr8dfGz16NMOGDSMpKem4JmfbsmlqbKSpsZGsrN68/fbbvPnmm/TqlcZFF11EKBxCdbo8uJNTcLg9mJEwVXsP8PWXlcc1YXcm0fn9fl577TUKCgrIy8tj2bJlmKbJgw8+mLDsjBkzmDlzJjk5OTzxxBN4PB62bNkCQHp6Ounp6fG+gD59+rS7vcWLFxMKhXjllVcoKCigoKAg4cQ9WjNmzOCBBx5gypQpAMyZM4fx48cze/ZscnJyePjhhxkyZAj//d//3e7f79+/n4qKCh5++OH457/rrrswTZM1a9YAkJOTg9frRdM0cnJySElJoU+fPvHPm5OTE/+59bf8n//854wePbrDfR8/fjwPPPAAOTk5lJSUMHXqVFatWtXp8QMpKSnxLob09PT4z8899xwVFRW8/PLL8RjPnTuXjRs3xr+Vr169mtzcXEpKSsjJyWHmzJnceuutqGr7Qy3ai0FLM2BxcXE83sXFxcycOZNFixZ1+O36ySefZPDgwSxcuJCcnBwuvvhiHnjgAd54441OfyPftm0b+/bt45e//CV5eXkUFBQwf/58Ro8ezf79+zuMzdGU99/85jdMnDgxobwPHTo0fsyKi4s5++yzO6yBGIZBTk5O/N8f/vAHqqqqmDdvHoZhsGfPHhYvXszMmTMpLi4mJyeH559/HqfTyeLFi9usz+12k5OTg6ZpeL1ecnJyEpoeL730UubOnRs/nvn5+Ydtit+wYQNTp06Nx2HBggWMGzeO/fv3HzH+06ZNY//+/bzyyiu43e5OlTvDMBg3blxConj99dfJzs5mxIgRjBs3DtM0+eCDDwB49dVXyc3NZd++ffFy+95775Gbm0u/fv2Oqvw5nU7eeustpkyZwmmnncaePXvi43dajvHChQs588wzD/u5t27dyqBBg77zNXTy5Mnxa+js2bMpLi5m2bJlRCKRI15Tuvqa3ZlrX0cGDBjA1q1b47+PHTuWV1999ZgMrutITU0NVdVVhMJhAE47bRjXXHMNl156KT/q359gXS1wyBSimuHA6fJg6A72VVZRvbcWf1O0xyXqDz74gKFDh5KRkZFwgRk3blz8gLbIzc1N+D0zM/Oot/fZZ58xYMCAhO21/vlotd6nbdu20dDQQFFRUcIyI0aMYOfOne3+fVZWFhs3bkxoytK74FGkh8aqPf3790/4/bLLLsM0TT7//PPvte0NGzbg8/kS9mHUqFEAfPrpp/ETa/fu3cyaNYsdO3YAsRHLt9xyS6e3s337dvx+PxdddFHC6//8z/8MwPvvv99hP+55553XpnZcUVFBv379OrXtYcOGkZ2dzdy5c3n11Vepr69n2LBhLFiw4LDrOJryfmi5zMzMJDk5OeG15ORkGhoaOnVMnnnmGaZNmxbvjnr//fcxTZPLLrssYV/y8/P57LPPjvq4H1qesrOzD7v8qFGjePHFF1myZAk1NTWkpqayYMECzjrrrCN+uV+zZg3/8z//kxCjzpS7a665hpqamngL17p167jqqqsA6NevH7m5ubz99tvx96ZMmUJ+fj5r164F4MMPP4yXnaMpf5mZmQlfalreO/fccxP+tlevXof97Hv37qVv377fuUylpKQk/H7RRRcd9TnfVdfs73PtO/XUUwmFQj0qlxmGgcftxuN0o+k6oWCA6OefYv9jE9rWDzB27QTbbH/Ut9Plxp3kjRXWTWV8/lHPGmyya9eudk/oQwtjVwkEAgwYMKBb1t1SE7jtttsS+gNfeuklKisrD/vlYeLEifH+npamsWOt5dtoy0Xt+3yzrKioSIhBS02h5QvLtddeS2lpKevXr6eoqIghQ4bwb//2b0d1N0DLug4tK0dKtjU1NV0yCGXVqlUMHTqUWbNmUVBQwNixY4/Yv3asy3tLU+Utt9xCfn4+d955Z5vy2tIP3vJv48aN7Nq1q9vL2/PPP88ll1zCE088wciRIznnnHOOOJ6jpevM4/G06c/uTLkbNWoU2dnZvPbaa2zYsIGamhomTpwYX8d5553H5s2bqaur4+OPP2b8+PGcf/75rF27lkgkwscffxxPzN+1/LWWl5d3VDHz+/1dWqZalmlvvceiDH+fa9/hrqnHK1Hr0ShKNFajxrKxzSh2RhbBAYOo79efhtojjPrWdINAYy2qs9cx2enc3NwOv5VfccUVDBs2jEceeYQBAwbQ2Nh2ENwXX3zRLfvldrvZt29ft6w7KysLgP/6r/9i2LBhnfqburo6xo8fz4QJE3juuefizU3H437Rln6hQ5vWjlZ6ejo//vGPefzxx9u85/V64z9PmjSJSZMmEQgEePPNN7nzzjsJBAId9o0dqmU/D+3PaqmhH27/uuL2wIyMDJ555hkAvvzyS+6++26mTJnC22+/3eHF+liXd4j1hfr9/jb3MLeU1zVr1rSpyWiadkwubI8++iiPPvooNTU1PPTQQ8ycOROv18sFF1zQ4d89+uijbN++nbvvvpvzzz8/3kLQ2XJXVFTEqlWr0HWdIUOGJJyrZ599NsuWLWPNmjXk5uaSm5vLxIkTWbx4MWvWrEHTNAoLC79X+Wttz549R5XY22uO/j5lquXLhsfj6fQ+dFUZ/r7Xvo6a5o9bot65HTUUwk7PwMo5hXDUJJyegWlGwbbQbIVgU2Pn7qMeMPiMY7LTV199Ne+8807CSMGW5qmPPvoofnKdddZZbN68OWEQQiQSYd26dRQUFHT5fo0cOZLt27cnbO/QARAtJ059fX3CPrVXOFsbPHgwHo+HDRs2JPQNulyuDgvVmjVrME2TX/ziF/FlOppYwDTNDmtM38XXX3+d8Pvrr7+OpmkMHToUgD59+rT5zB3tW+t9OOOMM9i6dSsulyshDpZlxZveLr/88viAQrfbzcSJE7ngggvYuHHjYfe5dQyGDh3aZnBQy+cA+PGPf9zuOs444wzWr1+f8Nrq1as5++yz2b9/f6eO/4oVKzj77LPjF+mBAwdy3333YZpmmyb31rE51uV95cqVvPHGG/zud79r05TeMtjz/fffTzhOmqYdsTvo+37R+fDDDxP619PT03niiSeAWD/w4Zx++ulMmjSJESNGcPvtt8f3pTPlrnXz94svvpjQ7A/wk5/8BNM0eeSRR+JN3MOGDSM1NZW5c+cyYsSIeGvMdy1/rd879J732traw372Xr168c033yS8djRlqnWZbom1pmkJgwKPdHy7qgwfzbWvvZr4kboJjjXbnUTolB/RmNKLproDRAKxLinNcKDpOigKqqZ1LlHX11Ydk52ePn06AwYM4JprruHVV1+lsrKSl19+mVtuuQWfz8fkyZPjy3nnBFxHAAAgAElEQVQ8HiZMmMCWLVvYsWMHkydPJhKJcN9993X5fk2dOhWPx8OUKVPYsmUL7733XptbMlJTUxkyZAiPP/44W7ZsYcuWLUyePJmampoj1hBuuukmnnnmGUpLS6msrIyv/7e//W27f9NysXzwwQfZsmULL7/8Mpdcckmb5VJSUqisrOTdd99l79698dcgNlrzq6+++k5Nt3PmzKGyspIlS5bw4osvMnny5PiF6IILLqCmpoZ77rknvkxLcm3N4/Hw17/+NV6TuOGGG9A0LX5MKysrmTNnTnykKMCZZ57JkiVL4t0Cr776Ku+88w4XXnhhh/t7aAwMw2DGjBm89NJL8Xi/9NJLzJ8/n3/5l3/psKbyr//6r3z++edMmzYtfoxuv/12hg8fTlZWVqeO/4UXXkhtbS033ngjO3bsYMeOHTz44INomsZPfvKTDmNzLMt7dXU1c+bMYcSIEYwePZrKysr4v0AgQG5uLpdccgl33313wnEoKirqcPBjS+30rbfeorKy8jtPYTls2DA0TeOXv/xlvIy03Bp08cUXd2od//mf/8muXbviI6w7U+5atj1kyBBM0+TKK69sc+7n5+ezb9++hL7n888/n4qKioTbFb9r+WupDFxyySU8+OCDvPrqq+zYsYNp06bx97///bCf+bTTTmsz3uVoytSyZctYsmQJlZWVzJ8/n5deeinhnO/MNaWrynBnr30dNb+fdtppCV+0J06ceFynVK1PSsZvm4CNphtougGKkpgjHM6eNTOZYRi89tprnH/++cyaNYvCwkIefPBBLrnkkvjtFC3LrV69mgEDBjBp0iSKiorw+/28/vrr32uQV0dSU1P5n//5H/x+P1dffTU333wzt99+e5vlnn76aTIyMrj66quZMmUKo0aN6tQArTvvvJPS0lKWLl1KYWEhN954I+eddx6PPfZYh10E8+fPZ+vWrVx99dXMmzePxx9/HE3TEkY1Tp06lVNOOYXrrruOpUuXArEBWWeddRZz5szh4YcfPupYXH/99Xz22WeMGTOGRx55hCuvvDJ+q0ZLE+Ett9zCH//4RwoLC1m6dCkzZsxos55f/epXvPvuu1x++eXxGLc+poWFhZSXl/Pss8/Gxwc8/PDD3HzzzTz00EMUFhZy1113UVxcHL89pKMvWYfGYPr06Qnxfuihh7j55pt54IEHDlsje/bZZ/nwww/jx+iSSy5JmOnpSMc/IyODsrIy/H4/RUVFFBUVUV1dzSuvvJIw8vTQ2BzL8l5eXk5DQwObN2+msLAw4V/LyOeFCxe2OQ4lJSXceuutHa739ttv55tvvqGwsPA7dyMZhsGqVasSysiGDRuYP39+h7d1ttf1cMcdd/DMM8+wbt26TpW7Fueccw5Dhgxp95w+//zz8Xg8jB07Nv5aSz/2ofMKfJfy12L+/Plccskl3HnnnVx++eUJzeodGTNmDNu3b09ISEdTpq666ireeustCgsLeeqpp/jZz36WcM535prSVWW4s9e+9prMKyoqElpD3n33XbZt20ZTU9Nxy3marsVqzigdl3uHE+Wmf5lqm5bVqi5uYzX/blk2H2/4M/90zhW8uOxPnMwikUjCYKKW20QWL16ccHIKIU5Mo0aN4oYbbojfj/9DunaNHDmS3/zmN0c9s+OYMWO47LLLmD179g/62C1dupS5c+eyadOmHjUz2dTJPwNFQUFBVWPJWlXVhFq1pqry9KzO2LFjBwUFBfHmn/feey8+c5QkaSFO/PP/jjvuoLq6mqlTp/7g9t8wDKZNm8b8+fN77FOkuvuLyvz587nzzjt77PShR9KpRN2TJz85FvLy8rj//vtZsmQJhYWFXH/99QwYMIBXXnlFrmJCnOAuv/xyysrKePbZZ4/r5Bjfx/Tp08nKykqY2vRkMW3aNPLz87n++ut/sJ9Bty0L27KwzCiWbaNpibdcJGf8iJp9u076k7XltiAhxMlXoz4RrFixgqlTp1JXV9fpLxwtk7b8UNXV1VFTU8OyZct+0J9D+dWEy2xTUQh6vFhOg3AoRDgSm71FsRXCoQC7P3uPTZ/VyxkrhBBCdJHO9lHrNWoTqfv9uNgHThfJp/8TlmURjZj4GwPY2PQZeKZEVAghhDgO9LQf9SbUL4LlDxL0N9H4zVY8zhSS9wdxWjau1HTSumn6TCGEEEIcZFkW0XAIRdUwHA4i4VBsClFD1yAlCWdKEim2TSAQoTEriPaNH/dX9di7JXhCCCFEd4qEw1hWFKfHi7/+ANFICKfL3f5c306njtOZhpWcim1DsL5JIiiEEEJ0o1AogMuTgq4bpKRno2p656cQdXo9EkEhhBCiG7ndHsxIgGg0gtrqDixdQiOEEEIcf5puYAOKlfgwJZmZTAghhOjBpEYthBBCHAf+xnpsQFWU+L3TKqC4kzAkUQshhBDHl8uTjKIoKICixhq4LctE1bSE5VRqAxItIYQQ4hhTVRVFVVFUDVVVY7OStUOvx4F/3wEghNPlxOvwgiFd10IIIcSxZls2VnMKNqNhwv4gerAujNOVieFwEHVEqK/dj+kPkux2oRgGpLgkckIIIcQxYNkWVshPfaARVTdwulzo7uQUwqEgAX+EaG0IVUtCdadQG41i2SHC+77Ftm2JnhBCCNHNDN0g0BTA6U7G4XLFHsoBoBkONMBwOLFMEzMawelyY5oONNsNSKIWQgghuptuGHh7ZSQ8QavNqG9VVUGPDQxXFBVNN+AY1ail5i6EEKInUFolyuOw8cTk3RMC0pKgD/1fCCGEOJ4J+rgm7FhCPP6JunVyNk0T27axLEsSthBCiGOeoFVVRVEUNE1DURRs2z62ydq2MaMRzGgU04yi6frxTdQtidiyLKLRKIqioOt6h/eSCSGEEN2pJR9FIpF4PuquZG1ZFrZtoaBgAqGgH13XMRwudE8KLl1D142eUaOORqNYloXb7ZZSIoQQ4rhRVRWHw0EgECAajWIYRrfVqEOBJlAUVFXFMk2cLg+elLQ22+tUog5HQt2WpE3TJBqNSpIWQgjRYzidTgKBAKqqxpvBu5o7yQuKgoJCKNCIKzm1/S8PnVmZGY50S5Ju+T8cDktztxBCiB5Vsw6Hw8dukLOiYpnR75aozWgEp9vTbTXqlv4AIYQQoidp6ZY9FgObVU0nHGj6bonasiycnu5tljZNU0qEEEKIHuVY5ibDMIhGI9+xRh0J43B033zftm3LbVhCCCF6nGOZn1RFwfwuidq2LVRNB0X6j4UQQohu03zv9lEnass0cbhkNLYQQgjR/cm6/QFlh03UphnB5UkC25IACiGEEN1IBYJN9UQCjQmv64dP1Ca67kD58AOJoBBCCNGV7FiFOBoJY5kmqqKgORwEA00Y7uQjJ2q7Zb5tfxOKhFMIIYToUo0NtaiqiuFw4UnyxmrVqkrQjGKZUaKWjdVY13GiVlQVh8OFakawnU6JqBBCCNGFkr2poKooh1SHNc2g/sB+dN3A5XJ3nKhDwQAOdxJ2khd7SKpEVAghhOhKHUxLajgcGM0VZE1VOk7UlhklKTkFQk3YDhn5LYQQQhyrBG5Go0TCQRQ6GPVtRiO4k7woDQdQPt0mQRNCCCGOIcs00TQDb0af9hN1NBrF5U4CwO6VLhETQgghjiHD4SDa/ORKvf1MHkV3OLF0Azu5F9gyF7cQQghxzCgKiqpimZG2NWrLstAcDgmSEEIIcRxpmkE4GGybqKPRCB53MkrYj+2PPXKr5Z5qIYQQQhwbuq4TCTa1TdRmJIzT7YK9e2FfpURKCCGEOMYioRDBQBOulPQO5vpWVThQjZqcio3UpoUQQohjIRqJEGisByApLQvDcCQOJrMtC1XTMMNR1MxsrPR0kGZvIYQQoltZlkWwqSGWoL2pGO5krOYHYiUkakVV0TUDzaFj5wxAsSxsM0IkGpYoCiGEEF3NtgkGm7BME6fLg+Fw0NRYjxaIjREzHK62t2cpmoZatR9SUrD12Ojv+ibpqxZCCCG6UqCpAcuy0B1OVMXCcDiwzNjt0HU1FVR9tQNFURL7qM1IGMPhgMqvoMkff71RErUQQgjRpXTDSZI3FZfLg0Ws+RtA0zSqvtoRX67NYDKX2w25P8JKSwPrhzXRycoSH74xpbQ36em20jH4fCWslLIhhBCiBzAcjviDOQyHi1CgiUgkhGmanHbeJE47bxLDz5+MHmisB0VF03U0w4Ha2Iila2iKhkWUpkAVycny9CwhhBCiuzidTvzhIJrThTvJy9b1ywFiTd9Zffvj8abEFnQ7Yc/X0OTHsmN/XN9QjWHI86iFEEIcP8uWLWPTpk0n9Gf0eFNxOGL5NiWjf/x1FWLN3anpGTgcHujdFys7G5tYs3dTcA+9UrJOyKBEKpYzo2g4Q3w+fHn5jC5+is2B5vfW/YaRvlHM2dz6L7ZROsbHaTPLiMSWomL5DIqGD8Hn8zFkeBGzVu1tfk8IIURXJumTIVm3OCXvx2SekoeuG636qJXYj1avNIKhKA0NTTQ0BdF1nf1VtSdeFKpf4Lqi2azL+BWvlJdT9sI0Bn7yJFNKllIHGOdfTVH6Pt5+s1WP97ZXeX23h3FXFWEA1SuncdXsdXiu/T1l5WX8foLJyplXcv8GSdVCCNEdNemTJVkrmkaf3AL+adRVqNHowQFjwVCYaMTGm5JCenoG3iQX/foMIiuz1wkXhP2vr6ai1wQefr6Egpwc8s6dyV2TcjA3rGYNAKOYUJTO7tdfjQ9O27N2Hbs945g4FuAdHpmzBnP8XJbNvpi8nDwufvgZZg7Zx7L/XiW1aiGE6MIkPXnyZCZPnnzCJ+uQv5Ftm8rYun45W9cv58N1y9AP7P8GFBVPagYup47ucMeHiBtOD4rpwbZ/QLOT7V7EeN+iDt4cFP8p67rn2Hhd4ru6oSX8PmpCEekvreXN3bMZlruHv/zvx3jG3c5YgG3vsbFB4/yiWO06Jpcfj0jHXP8pnwPD5DwTQoguSdIjR45MeG/ZsmUACa+fCPZ+tRUzVJ+Ym1yeZELhEEkuB6rDhW3bBJsC+EN+QnYNGSmuH9anzJnKsy9PZ/AhL3++4BpuerH1KwE+e+nf+PX8/2Xb3gBmO8mcUT9jfPZLvLlqD7dNfYu1H3sYd/vY5ip5FQcweeM2H77bDtmY9gU7JVELIUSXJ+mWn0/UZN10YG9iktYN9Eg0gq05UR2xhNzY2EgkGsHpNNm/dycZKfk/rE+pecnOySHnkJfrvYm15bqlJYy/fx8THl/KcxcXkO4GVpbgu6P1UiO4oiibP/zvX9iWUs5mzzgWjW2pkmeSRm8u+68/MrNNRnaTLueaEEJ8L4cm6faS9QnDtgmEIlhWNOHloT++At0Mh9CT3PEXQ6EQyR4ne2s+j4/2bt2PfaJYs3oDZs4t/GJiQTypVlfXAon98SOuKCL7D29x/6sfknrFH2jJ0wwu4HTPIjZsqOHBcacfbP6u/oqvPOm45RwTQojvnKDPOussBg0a1OEyI0eOZNCgQaSlpf2gP6sZjRIxLdxJyWRmZvBFq/dyh4zCm5IaG/XtdMbu24pGwuhabJaUhoZvSPFmAFBbGzzhCsKIM4bA7hd5cO5bbNnxHi/PmcQlj/y9nQWvoCj772zcmErRhFEHXzeKuPUmH5XPXMfk0jfZUVnJjveWMG3CWK787Vv45VwTQojv7HBJusUPPUmHLQWHx0ufvv1JT8/AcB0c8ZTez8cpp47gk01lzfdRO2MP3wgEgjgMR3MtOoSua81Ju+mEKwS5059l/s/6sHXJ/8fVRTcy77ORPP7bn6DxGVs/SsjUXFGUDelFtM7TAMPufJ2y0vPxL/0lRYWFFN34X+w573csf2wcHjnPhBBCHEZWVhZerxdFVRJedyWn4funC/j8w/XUVX2Ncu2Un9mZfWIzoFRXV+NNclHfuI8Ddbs5pf8AbBs2vr+LzZv/3qU7aNs2lmURDoepra2lb9++ctSEEEL0GN988w29evXC4XCgqiqKonTp+qdPn46iKLFpQtWD05pYloVhGNjBABFbQ9ddSW3++EDdbtJ6xfpqQ6EoZsSSIyaEEEJ0M0UBte4Akap9RDzJWGkZ6N6k2DzfZtTE43KiqLFHVKekpGFZFtV1jRI5IYQQohuZUZNIKIxS/Q14kgln9yEaCqAGGtB11cJGw2qsx1Ffi11bgyfz4Jjl+poQmqFKFIUQQoguZIeCmFX7UCJhQtn9Yl3CniRsK4oasdEMB5qqoqsOF6Zpoh6oAjN2G5an1e1aDfUhMjJdElEhhBCiK2k6ERQiaRlY/thsZIbhgOZB3S3iVWUrLRPLiuDXIzgcybHadH0AK2rhdDokoEIIIUQXUnSdaGoagaYGNN1A041YJ/UhVIBwKEzUMGBgHo1pGkbzbVnV9SEAmqpMiagQQgjRxZKSkkjLyI4/Y6M9KkAg6EdRobG+Dn8gEH+zoTqEO8mF5YhKNIUQQogutGzZMl566SWcbg+RcOjwiToaNdFUlbqmr0ntFbtdKxI18TcGyMhyUVsTkIgKIYQQXWjy5Mn07t2bSChy5Bp1i6ZgJclJzdOGHghKFIUQQohupKka4UgIh8PRYbJWg8EgDsPAtCyi0WC8f7q+vhFVV4mEZLITIYQQoqu9/fbb1NbVkpScjO50t23+tm0i4RB6UyCIy1CpDXxDctrBh0NW7Q+Skuqkvj5Mr3R5FpQQQgjRlYYMGUJ2Vm9CB2rQnS4s80D8PTMSJhTwx6YXxYqiqSpNdd+Q6Y1NGxoMxm7L8nqdBJqCeFOcElEhhBCiC61fvx5Vg7BuYDbPY9JYd4DGugOEQ0EMpxuPNxUdoL4xQKN/LwOTfNi2TXV1Yv90eoYkaiGEEKIrjR8/HkVRURUFZzhMVDMwDQWn++DzF1VVRc/IyCQSCaGoZ8bfqK8P4Ul209AQQtVVXE5p+hZCCCG6kssVm/XTWVsNHi+pyV721x9os5way9g6qd6s+Iu11QFSUhzU18n0oUIIIUR3eOONN/j6669Re6WhBhrBNDFsDdtMnGRMr66uIhjcR1Z2bNrQ/bWxe6YdSQpW1CLFmyTRFEIIIbrYqFHnYJoWanIKakovzMZ6kiyLxnAIR3Pzt2VZ6ClJHnZV/oOs7NEANFQ3T27SPBlZrzTpnxZCCCG62oYNf8Pv92NGI/Ttl0Ph6HNxRsLUBaM0+f3U1TcQCEbRG/z7cLmS43/Y0FBPqtdDVV2sn1rXdWzblogKIYQQXcjnG0R9fR0jR45EUSDq96NrOi7NIKob9OmbQ0Z6BmpN4GuyMk4BIBSK0tRgk5rpwF8TwCujvYUQQohuMXjwIKqrq4FYkgZQHU7S+uaQlZJCussB/9iIGmyoIjUlDYD6uuZZUfTYfxnN908HQzLXtxBCCNGVdnz2GdForJ9ZqalCaWqIvREKYn/8D6xwBDsnN3Gu7/1VDai6SrjJRtVVUlJit2U1NFZLRIUQQogudKC2losvujj2SzgE/iawLdB0lLNHYyV72WeBnp528Las+rogWVlu6hsaSEk92OxdWyuJWgghhOhKgwcPJhgOYjibm7FNEysYQNGi0NjA3roaAqaKmtJ8/3RdXQArYuF0OfA3WKS0mjY0aoYkokIIIUQXeueddygrKyMaNYloGoRCmFZzQ7em49A0stNTUV2u5ubthsRpQzMzvQA0+etIcmdLRIUQQogudOWVV5KRnoFhGNieZPCmJLzvdScTCQcP9lFX7Q/i8bqprw+i6irO5qq4ado4kEQthBBCdLVAMIBlWdieZOw+OViaAmZsgJlT04hGwrFEHYma+BsCuDGorwuRmXVw2tC01EHkDBgs0RRCCCG60J/+9Cf69OmLqh4c120YxsEFNB237ozdiFVbE2v2Tu6nUfWpRUpKcqtVOQGZ8EQIIYToSj/72c9QFAXLstAUUD/eAgN+hG1aKFqsVTvV4YzVqOvqG1ENlVDzmLFeaS01alUiKYQQQnQD27Kprz2AgnLwtaiJ2dz0DaA4mxN11f4AXreb+uognmQ3hq7Fat1qikRSCCGE6AaKqvD+pg+ImlEMpxvb4QR/E1pzbbqFGgpFsSIWbq+OvyGQ0D/9xZdbaGpsxIpaElEhhBCiK2vUtoVlWXz66ad8su0TtIGDADBVIzFRVx2ITVnmTI41c3ub75+ORE2idhMul4m/qVYiKoQQQnShFSv+jM83iNNOOw2Px4PicqP074/dauQ3gF5XFcSTohJqtFANldQUN5Zl09RUTa+ULDRdJzlVHs4hhBBCdKWWwWTBYJDc3Fws28ZGQ3M4sZsa4gPK1Lq6ECleb/O0oQebvevqmkhP9QE6VkQCKoQQQnQHMxrFDIewrQjK3kpUp54woEy1ohZerwt/feK0oY3+b9F0F2ZTEPvbvRJJIYQQojuFwqh7KyEYTnhZBQjbsRczMmM16mAwQHJav9gSDQ2xp3oIIYQQostZdvNcJU5Hc8JOnNJb9SS7CTSEUQ0Vd/O83/WNVfROiY0+UzPSUGoPSCSFEEKIbmBbFqgKFhq2bhANhzA1PT6gTPUoOlX7Awn90wF/FBexZnCrtkGiKIQQQnQTt8eDPxAkGAgQ7d0X3ZuKajiwTRMAPS0jmf11dWRmHuyf9rjdsO1jzP4DoaEeK8UrkRRCCCG6gWEYpKdnxGrXyV4sbGzVIGyZ6LqOHlZjbeGpqbFk3NhUh9NyASFIckMoiBLVJJJCCCFENzCjFqojNpeJpmsoihJ79KVTB38Ten1dENU4+FjLUDhIaqMBLheK04Ot16P07iuRFEIIIbpBXX0tqm2hO5x4vSlouoqiqCi6gZaWgV5XFyIzyx3/g1DYJqo6INWLHvJD1ASkRi2EEEJ0F29zF3Mo2Eg0ahG1bJxOJ8lJyehW1CK11WMtdcVFKDWVJG86hBvB6aS2XqYQFUIIIbqbbjgwHAqWP4D/QBUR2449j7pXemzEd2NTHU6XE8XUMZwGlpGK7Ukh+u23Ej0hhBCiG5jNo7sBzKhJpKEeQ1XRdAMrGkZP8irxx1r6mwJk1FlY9jeQlhH/Q6ehSySFEEKIbqBpGrZlEW1oIBwJE8WiybLQVJWoYqOnpBx85nTEBrWujnB2P6g9gGXbRB1O6hubJJJCCCFEd9Soo2GCdWGaQn4URcHtScahxSrQ4aAf3ZvpiSXpqIknoACgZ2eh7tgOaZnUB0OEw2GJZLPPPvuM559/nqqqqu/095mZmdxwww2ceuqpEkwpH1I+5HgIAZZNY6gJV5IXXddBUeJv6bqBmpYcm1vU769HdTnB5cZweqBff5Ss3tTX1+NwOCSQzZ577rnvfNIDVFVV8fzzz0sgpXxI+ZDjIQS2bYEdxXC6UVW1zfuG4UDXdQ3LtAgFQ6SknkLA68EDaOnZRMNRGhrqGZAj91G3qK6uBmDRokXf6e9vueWW73XhEFI+hBwPcSIlaghHLTxOo/0FFIV4+o7YoODE5XRg7vsGs2Yf4WiYrHRvu1le9BDbShnjG0Pptp6wL0v59fRHKKv+/quqW/0Y03/9HB/Js9CPS/xFjzzAlI7xMeb7nuxSTnpWorZAsW0UVelwGRVi/dPJtoq5ezu64YDdX8QmOjGjJCenSiRF5+zfwptlL/HWx0f7XWMMvjGltL78NO1cz1t/+Qsb9ktYuzv+QspJe+egODYUFRTt8JOK6RDrnzbqwngiBlY4Nve3kpbG11/sJj0lCUVRJJriyC54lH9UPNolq+r3iz+z4xcS0uMVfyHlRBwbLS3WtmVCB63XKkAoGMLTaBL2JKM6XDAsn7AJDQ31KNLs3aNUryul+Jwh+Hw+hpxTTOm71e0tRGnxaPLzfPjy8hld/BSbA63eD2xm8c/Hxt735ZE/upjSdYnriVQsZ9bEcxjia1lHKQcXaW6C+80S5vw0nzxfc9P7yhJ8vtbN8Csp8fm44cnlzBibT57Ph2/IORSXrqO61fvjF+2G3YsY7zvYrLetdAw+XwkrD9mnGUXDO9ing3+zpHWMhl/BnHUnSRvfofFfWYLPdwMLV82iaHirMrOumsDmpygeHTsmefmjKV7wEZHEAsDyGUUMH3KwjDyVUIg4ZB1jmbH8SW7w+ShZmVAYWVdazOj8vA7Xc0LaVsoY32n86+qDL9W9MAWfbwov1B18bcM9I/GNvIcNnT13AQJbeKrVMmNnLKci4eAF2Lz454zNz8PXcnzj59yh5aTjcxAiVCyfcbDsDC9i1qq9SG9Ud2RrHcuyO34bYv3TAHpmNgBaUip1dXUYDqcEsEed/I8z5aZFfDLolywtK+evDxWw4ak/sjvhAvsRpVNuYvGu4dy7vJzy5Xcw8JMnmXLjC80nah1LS6bwuw/6cMfycsrLXmDawE9YdNONLGhZUfVKpl01mze0q/l9WTnly+9l+K7F3DTl8YSmsco/P8HaAdN46D9mM75fx7tdvmAJSf+6lLXlK3j4JxqbFt3ErS9UA0U8Wl7Os1NzIGcqz5aX8/L0we2vZPcCri6azTrPtYfsU+kh/djvMPfOjxn95F8pX/Ek47M/4Q/T7qfspL26lDNvvsKMF1bH4uHdxKJpYxn1izWc+tvYMfn3URZ/e/QXPLT5YHJ94boiZq/L4FevHCwjT04pYWlLkqlezrTrn2STp4jHV5SzdukvMOc9TXni1z0+Kp3CTYt3Mfze5ZSXL+eOgZ/w5JQbeeFE/+407ELOS/ezZePBpLfm7c3AZv7fX1uCuIP1f6vBc/5FjOrUudt8KrzwCGtO/S1L15ax9LeFBN+YzVWzVscTaN3SEqb87gP63LGc8vIyXpg2kE8W3cSNC3a3s6Mdn4PVK6dx1ex1eK79PWXlZfx+gsnKmVdy/wZJ1V3N43YdPo9HoyaG4iSYOwijV1r8jfr6elK88hzqnmT1omepyChm0fMzOTcvh7yLZ7Ps6X8mvdUye577NxZXDGbmywspLsghp6CE5+eOx7nxGdVJJJwAABd8SURBVBZvA1jD6g0muVPvo6Qgh5y8c5m5YB63juuP2twfvG3xk6wxxzN32Wwuzsshp6CYhUtuJqfiWRa1qiE4L32Ct56eyZQpl3HaYYYynH3PK8ydWEBOTgHFC1/jvrNh4zOL2Yab9Jwcsr0aaF6yc3Lok9LeyMcIZY8+zccZxSxqvU8vz2RwxSLuXryn1bKDmbH8BWaem0dOwUSeuHs8Hv9HbPn8ZC01Z/KbpXOZWJDTKh4NDP3VczzQckyeuJWz2cfmvzXHcf/rrK7oxYSHnz9YRu6aRI65gdVrWsrI05SHzua+V55oXncxC1/7LWeSUBj5t8UVDJ75MguLY9sqeX4u450beWbxid4bOoqLzvewe/NG6gAiq3jtnVRyc51sXL0mllTr3uP9Co1zxhR28txtvqiPn8uyByZSkJPHuSUL+f3UbBpWLWVVc/5cs3oD5v/f3r2HR1HlCR//dl36lns6AZJ2AjZG5I2jGcZAYAiESIwKsqyPyhuZBVF8wy0sIyKzzCjOCrOGCLoCi1EQ4Rl0BtRhmUHNoIDGEcYob/DGJRI1GsGQBHLrTrq7qvaPbpPuJGDU4CKcz/Pkj3Sfqq7+1Tl16pw+p07K7dx/VzpOZyojC9fx6JzxXCL1NODjTGXwDR5eugdtwgq2Ls4l1ZlK7vKnKRxSy9andopWdR85efIkX3zxBW5PG1Fx8WeuqN2tTVgt0UiRkWgtp9HeD9xWx0fZiLKJ+dPnUXOa8go3cvpIMkPqMtXhIDIk1dv7D6K5xnNDSkiazAzSqOboEYBx5GTKVD+7gEUb9lHZ4IGYHO5dt46Cnwda3OUHquHnY8gJrTOHLmZv1Qc8ltP5UsIlKai9OPLI6NBa3MH47Cug+ihHev3dD1Ne4caeeW3YdyflFialwYfvvB3yYjIpId+dpCQSLup8E4vD0T0eYeckJppIoLkp2NJL/CXPlJfznxNDgq2oYWvoHTlaDQOHMzJ03w4HsYRlRg5qLsaHZ0Yy0qD66JELPvJZ2SOQD7zOHh9Qtpd/WEbzwAPjsfxjb6Dn4d0DfMgwxo5Te1l2ey53w264lnjtGEeCN6PjcjKRq59lwaIN7KtswEMMOfeuY12ggPfycrOP8maZ0Xl5IZ+VwvBh8WjHjvAxQl/44IMPqK6upry8HLP5zK1qpb2tDbVBgZ8ArR6w2fH52gIPA9cNDAwRzfOI89LBZ7s/42QDULWWPNfabu+6jlUCqUzdVIp5yQIeXTWNF5ZrqIlXMuWBJ7l/wgBUvuT4V8BgtVeV8HeRnNQP8NDaCkT0ZotjfFIDCRO7zudPJqmfyBPngufoczxw72peOnQCT+d6AQRyXyutHmDgYFLP2lpoAKpYm+dibffMSCA3XrjUcWMZpj1O+bsw4LU3YdxysrI8jGhfxmv7IfGtd3Gn3c74mN6W3TOIiSby68p8KMRM3USpeQkLHl3FtBeWo6mJXDnlAZ68fwIDeluoT9ZxCo2/zXfhmt/lPfkTjgU+Sviexo0bh8lk4qWXXkI6y8hvBSC6uQ6M/sj9k9ASEjhe/QWS3obdHi0ieZ6pO378LEUkkcR4YPhi9qycSNelVOSoYK2muri1eAe3FoOnoYJdy+5lYWEenqiDFI9JJqk/4Pfhg3NSWVce+wwYSEREb7cYzKVOONjU2HVPBHcl9KXGLdw14UFqb1rJlmdySY+3ERh0dE8wQQQRNqD2OF8CZxqekBjIjCzes5KJ3TMjF/w9VkwGw1Ia2PX3vxL990ZGLMhBVeGmMYt4+OW9DDlcQ8ro7GD8elN2z9CObWyiBSed9/AqrluL2REo4FTsWsa9CwvJ80RxsHhM7449MYE4+nPDk89T2O1yYyNelJI+0draionA6lk+35l/UJAiTwVul+XIWHS/D0lSaGpqQlVEt/f5ZSgZ6Xbc+18jdCyHr76eltBusKuHwAdv8bbVidP59V8/ZF3GEa3Ce49wY0YeDwcHDtni05m0ah5jaKZ83yEghoxhKfDuG+wOzTfVT5GfMY7f7fv2R94SVsHWs+/tzyDlcoaEJtJ8+M+4hyvISLfT8Npfwr471S/zahWkXTNcZI++tGc3+zUnuXdPClbSQH09oavSD78mDQ7v5dXQUU5d0jDsaobwAW+9bQ3Ji076yTqyI/qc9dicT2V27C/iqdq2jD9Xf93FrTJu7DBqX1/G5gPx/GLs0N6X3a9v1r+oDvuN+MDLr9EgX86VVwC8xyM3ZpDXWcBJn7SKeWOguXzf2edJh5bBy9L5qf0r9u9voF/IuXNadfT4eGyilPSJ3bt38/Irr5CRkYG7penMFbXNp6LHRKPVf4Xx0Xv4fV683nYsVnEqzjc5BTNw1T9HwfTV7KusoWLHUm6b+zwNIWlSps/lOrmMJTfN4rmKGmpqKtix9Dbycmby1GfA0NH8TK5kw7yQ9+9Zwxv0Y2xu4KIxdOYCxsk7ue+2InZV1lBTsYN77lzBOzHXc/M13/64y1fewdIdFcHPmsJD5ZBx58yOfoGY6CioeZUX3qrh0xONPXUikrdoLmn1z1HQcUzPMev/rubj5H/hNzOTReboS8OuZgjVPPvQCl6tqGTfH5dy63UP8/9DkiTfXsB19nIemnIPOypqqNy3gVk3hachZTpzr5MpW3ITs56roKYmmGfzcpj51GcXRSgzrx2NvbaW2rTsYBc3xIzPJq26iirLaK7N/BZlN8i98z5uW7qDippK9m2Yxbxna+l3291MUAM3B6N/JlO5YV5IzO9hzRvQb2zuGfviupVBNY85M1zUPP1LbivaRWXN1+c4h8m/fhW3KCV9Ijc3l5ycHBISEnA3nTpjOsVIGQxmBb6ohqhoGpuaMYtpWefpDfpC/rTRz7yFa5ia9yhq4gjunH8Lp5aHDKaKmcgTu2Mpmncfy27NwqPJ2AZlUbCxmDkDATJZvnMz0aHvDxhK/uo/8NthwX04JvPEn30smP0Q8/JK8Mk2BmUVsrF4Pj/9Ds2grBm3U/fYVLI/9aCpiYxY8CeenuYIuej/iil/nM3mX2bx5txSXl3YwxDylNm8WJoQdkwDrpnJxjWLwweYCd9fymw2rv6c6f+2gf938xOBfLby10TfvZyjH7wPk38KMRNZ/YfPmVawhoU3bwfbIK57cC5Zix8Pvfwz8YndxBbN475lt5Ll0ZBtg8gq2EjxnIvk94qsbEbIO6i98Z86fyJI/iduTCvmcL9sssJqy28qu8HTM+3XjDvyMFOzT+DBxqDJq3n2wcxgD4VK5vKdbI4OjfkAhuav5g8dBby7nsrg0IUvU5qygNkPzSOvxAdqIldO+j3bfj8euyglfeKVV15hZOZI0MFkOvMzS0zzrx1jmK78GdqHB2HgINoMgzZ34H6pYzCZYfDs1hf69AANw0DXdbxeL6dPnyYp6cex8EdBQQHw/R7y/322/3EJ/q65qooNky+Ogncx5Q+fz4eqhtwl7f8N19z+34xeHz47QJwP4cfq+PHjxMbGYjabkSSpz5/SOXv2bEwmE+7WVtxNDahmS7dlLk2AwgAnAHLa1QC0ffWlODtnYbPZ8Hg8HQX4u3CEzZcRRP74EeaPyv/kpskvMvieh1lwfQpUv8LKhVtpdM2iIEecD0HojabGRmJiYzFbLHgkGSP06WSGQXubB83vQzJOdU6Cb2lp4fOa4yJ6ZzFnzpzvVXAdDgd33HGHCKTIHz/u/JE6h/96cDifb5jJjVlZ5E1bxXsDZ7LxTwvPq2k7orwK57N9+/fx+uuvo6oqFps9rJJ2Nzeia36iYuIwzb9unKH/ZCByZAy1tV9x6tRpEmIDTyQTXd+CIAjCxepcd33PmDEDn9eL1+dD103ExUZw+uQJNF3HoqqY7ZHIkoRCdCycrEU3W7BYLNitYlqWIAiCIJxrW7duJTY2jvi4WOLjYkmIuxKLxY5sDh8hK2Gxgj0Sze1BlhUibWJaliAIgiCca9OmTSM6KpIxY8dyeWoqTae/QlaVbukkpX8Scv8kZLsNt7uV2lONInqCIAiC8ANoDc6yam5pxtve1mOajolbJkWhzd1KtM2MrusieoIgCIJwDm3fvh2n0/mN6RTd78MwdL6q+ZzG5lYAdF1HNitYZDMxUaIrXBAEQRD62nV51xNhD9SxsiSjSxK6rndboEPSPzwYqJw1PzFREZjNgcFkmteP3y9WHRUEQRCEc+H99w6yZ/duGhsbkVUF1SRjaFq3dJLJ78fw+7FFRmOWTUQH16C2WCxYLSpilUtBEARB6HsJjgQAVNUCJhlZUdGM7j89Kwy8FP3ECaLj45BiIvAZZiwRkZw63URjczMNDadxikV/BUEQBKFPDb5sMDGxMRyrPMxlQ/4P+Ntpb2vroaK2WjBVHgG7Hb3yUyTDIDLpEiKj7BjJSRiGhKetWURUEARBEPrQiRMnqaw8RGJiP2QJNJOMrvl6qKgbm0BVkeLj0a0WaGwEzQfVn6P3S0J3t2CRFBFRQRAEQehDVVVHSU6+hNTUy/B6vWdMpxATDYpKe3s7Pr+GW7FgMZuxpyejSCb8dbUYp0+JiAqCIAhCHxo16hcdjyVVVIU23R94wzDCVtCS5MhY5IR+qKoVkxIYSFZXV8+hw4f4uLISr9WG7PqJiKggCIIg9KHy8ncB2P3aayiyQkRMPHZ7JEaXZ5kozXWnscdFoRs6NquNiIgIEhISaGtrw+NuxdPejt9nEhEVBEEQhD7k87Xh1/1YrBY+/fRTjn38MVlZY/A0h/diK7bgSlktDS1427xExUdhsVuwWq2YzWYMw8Dn84qICoIgCEIfiouL5/BHh6mtPUlGxnDi4uJ6rG8lRQk8ASWufxzRjmjMPayepSiqiKggCIIg9KHq6s9oaWkhM/MXWK1WJJMJqyTh9baHpDJQfG1uNCRUVcUWaetYJ1oQBEEQhHMnL+96TCZT2DrXWns7Xm87ms+LZhioiowC0Obx0NLShCTJmM2WjseICoIgCILww1DNZvxtHmSTCVtEFCZZRpYkFOnLL7A31MNPBuGzReDz+WhtDTzgRJFVrBYbJlkMJhMEQRCEc0mWZby6H0WSMUkdi1ui+GLikXSdRo8HwyRhNiC68RRERdOmqLS4m/H5/CKCgiAIgtCHNE1DUTofKKaqKq26jiorGLqOKbiKlnKqtQnJasXtM1DavXj97ciNp1HqarEYBkq/ZHyORBFRQRAEQehDPp8vrKIGMEwSsqLi9ftRv66orTY7mqZj9rvxegMt59r4/lhkiPX7MZktIpqCIAiCcA5a1N1ICqoBbf7OaVqBqtwEFpsdC4Bh4PO243G3cspiRcbA5HGLiAqCIAhCX1bU/u4/KyuyCUNSMNo7Z19JPW1skmRkWUZVLZhMEt42UVELgiAIQl9q72EhDklSUAxT2GNEe1wWy9BDmuMmxHStc+jo0aNs2rSJurq677R9QkIC06dP5/LLLxfBFOdQxF7EXvgx0bu3qFXVjL/LUpfSGXdgkkQQfwDPPPPMd77IANTV1bFp0yYRSHEORexF7IUfGc3oPvVZMSv4dA1ZkjAFW9U9tqg13RAR/IHU19cDUFJS8p22Lygo+F4XKkGcQxF7EXvhf4dsMvDrflS58zHdiqxgaBqqScav6ZiVM7SoDV1DkkSLWujZoaJsXNlFHDp7IrJd2RQdEvG6gHMCW+6dzcOl9cH/t3OXy0W2OOkiHkKvmEwm/N7u3d9+k4KkqOjBn6HDamOTroN4zrcgCL1ykopdpTz36ociFILwHUiS1ONqWbIso5pVNM2HbnTp+m5rb8Pb3oYJUCw2EUVBEM5iDMUHqygWgRCE70QGjB7mUlssFtra2zFHxKJaLeEtal3zo6hq2DNGhQtZPW8W5TMqLRWXy8WQq/JYtPMEvh7SjBjiwuUawoj8It6q72FPbxaRP2JIYD8j8inqkijQXX4fG5ZOJC01tDsw9BhSSRuVz+MHPCFbejiw/k5ygseYmjaK/KI3Cd2778ROHpg0giGuwDFelTeXbVW+i+Ys+qq2MTfvqsD3H3IVeYt2cqLj6we6X6c/sZNFHWlGBGLoOcDj+aNIS3XhSk1jVP463vd9m/xxMXftBuP62Dbm5qSRGhrXbifoE7bNzemM852bCc+ePqq2zSXvqiFnzOPb73Lhyl7GS9vmBstCKmmj7mRzl3x+9rwgnHdM0N7DI7ojIyNxOBw4HA6io2NCKurg+DFD18WI74vj8s7+30xg2vqTjHvsJcrKXqR4vMb2wsksOxBSwa6cwoySjxg8bwulZX9lWfp+Hn++OnxXh1YyZUYJHw2ex5bSMv66LJ39jz9PddePrPkzq/YOZNay/2DxhGTAx/tFU5ix/jOu+u02ysq2cc+gj3hsyh1sDl6lGrfcxZTfv8uAe7ZRVlbK5lmD+KhkBnes+3rvB1g2uZDn3ONZU1pG2YvFjNf+xuJ/XsTui+ECVb+dWf+8mDftU1lTWkbpmpvQthcy+cH9YTdcZY+uxjR3M7vLXuSxCVG8UzKLnMy72XP5r9myt4wX/z0T/R/F3N1x8nuXPy52Zes2ELFgC3vLXmT5OJl3SmYwZ3N4VV2zaREbIhawZW8pW+ZfTeveB5m7rrN0VK+7mbzFb2KfuobSsjK2/fYqPls/gylF74ffNNdsYtGGCBZs2Uvplvlc3bqXB+eu6yxnvcwLwnnG0L4xSUeNrPn9HS1pSZLQfO3h86mFC8w7lL6l8dN5q1mem4rTmc6kogJGUcvru75uIe2mZGMVjvwSNhWOJNWZSu7iray9JT5sT7tLNlLlyKdkUyEjU52k5i5m69pbiO/Wn3M9q15dS+GUKdxwZQx8+QwPrK/issI/8kR+Ok5nOndtWsEESzlPrw8cw57d+9FSbuf+u9JxOlMZWbiOR+eM5xLpZPAmYRev18KYecvJTXXiTJ/EqtUPcvOoOFpPXvhn8Y2Hl7JHm8CKrYvJTXWSmrucpwuHULv1KXaGXJ1/dt8WVkwKxHjSqiVMsLtpvuJfeeZ3k0h3OknPX8WcDKg98A++7HX+EDJ+86eOuOY/8Rfuz4Dyp9eHDbS0XL+Kv6yYRLozlZGFjzArDY4cDN7t+EopXvshjvwSti7OJdXpJD3/Cf5YeBlVJUtY/2WX8vOXFUxKd5I6spBHAjviwLfMC8L5w+v1YrXZe19R+/1ezNZIFEsEuuZH0zTc7pawp6MIF5KRLN1Tzn//69DOl1Q1fNDCoXIq3DLpIzPpnDyg4nBEhiaivMKNnD6STDVkVw4HkV0/MuESUkLS8PZ+Dmouxt+QErJhJhlpUH30CADjcjKRq59lwaIN7KtswEMMOfeuY13BzwPph+Yyth+8seJfKNpRwYkmHwydyiPrlnJT8oV+Dg+xr7wZeXQeeSFxTRk+jHjtGEc+7nwt1uEI2S6JpAQgMpqYjtdiiI4Empto7G3+EIiMjgn5z8H47Cug+ihHwrJ9Skj5SSapX8ibh8upcNvJvDa0jEHKLZNI40PeefvM5Sc5bEe9zwvC+SMqLoGoqOhvTNdR7iRJxmy1oRoGlmAN724+ha5r2KNiREQvQL4Te1m35D9Y//dKWkLuuFPCUjm5dPA378vZm0RdnDzZAFSxNs/F2q5vuo5RCaRO3USpeQkLHl3FtBeWo6mJXDnlAZ68fwIDVIBh/G7nZhyLHmL9opsp8cnYBmXxq0fWMnPYhT4g8iR1p0D723xcrvld3pP55Bgw9FznDyFUoPL00NoKRPRig2OfUEMCE5O67Yh+51FeEM4Nq9Xa7TVd02hpaelsTctyoKK2RURisVpRLTY87s7nepttkfjaWjvmcgkXkgMsm3wn212/oqR0OtcMikblEEXZE3g5LF0dx49/cyGv602iLhIT44HhLN6zkoldm2pyVPBCpeK6tZgdtxaDp4GKXcu4d2EheZ4oDhaPCTZkRjP/6VLm46Pp03fYtGQWv59yO8brf+buC7pVnUhCHPS/4UmeL+wee1v8D5E/hFCVxz4DBhIR0csNBl+Kk4M0NXbbEYE9nQ95QfghnTp9GpOhIQUHjpl0if8BIzUFs1A+IvAAAAAASUVORK5CYII=;imageBorder=default;" vertex="1" parent="1">
          <mxGeometry x="10" y="10" width="490" height="348" as="geometry" />
        </mxCell>
      </root>
    </mxGraphModel>
  </diagram>
</mxfile>
